<svg xmlns="http://www.w3.org/2000/svg" xmlns:xlink="http://www.w3.org/1999/xlink" width="500" zoomAndPan="magnify" viewBox="0 0 375 374.999991" height="500" preserveAspectRatio="xMidYMid meet" version="1.0"><defs><g/></defs><path fill="#e0555c" d="M 220.742188 177.605469 C 220.742188 177.9375 220.6875 178.269531 220.570312 178.601562 C 220.453125 178.929688 220.285156 179.25 220.058594 179.558594 C 219.832031 179.867188 219.554688 180.164062 219.226562 180.441406 C 218.898438 180.71875 218.523438 180.980469 218.105469 181.214844 C 217.6875 181.453125 217.234375 181.664062 216.742188 181.851562 C 216.25 182.039062 215.730469 182.195312 215.183594 182.324219 C 214.636719 182.453125 214.074219 182.546875 213.496094 182.613281 C 212.914062 182.679688 212.328125 182.710938 211.738281 182.710938 C 211.148438 182.710938 210.5625 182.679688 209.980469 182.613281 C 209.402344 182.546875 208.839844 182.453125 208.292969 182.324219 C 207.746094 182.195312 207.226562 182.039062 206.734375 181.851562 C 206.242188 181.664062 205.789062 181.453125 205.371094 181.214844 C 204.953125 180.980469 204.578125 180.71875 204.25 180.441406 C 203.921875 180.164062 203.644531 179.867188 203.417969 179.558594 C 203.191406 179.25 203.019531 178.929688 202.90625 178.601562 C 202.789062 178.269531 202.734375 177.9375 202.734375 177.605469 C 202.734375 177.269531 202.789062 176.9375 202.90625 176.605469 C 203.019531 176.277344 203.191406 175.957031 203.417969 175.648438 C 203.644531 175.339844 203.921875 175.042969 204.25 174.765625 C 204.578125 174.488281 204.953125 174.226562 205.371094 173.992188 C 205.789062 173.753906 206.242188 173.542969 206.734375 173.355469 C 207.226562 173.167969 207.746094 173.011719 208.292969 172.882812 C 208.839844 172.753906 209.402344 172.660156 209.980469 172.59375 C 210.5625 172.527344 211.148438 172.496094 211.738281 172.496094 C 212.328125 172.496094 212.914062 172.527344 213.496094 172.59375 C 214.074219 172.660156 214.636719 172.753906 215.183594 172.882812 C 215.730469 173.011719 216.25 173.167969 216.742188 173.355469 C 217.234375 173.542969 217.6875 173.753906 218.105469 173.992188 C 218.523438 174.226562 218.898438 174.488281 219.226562 174.765625 C 219.554688 175.042969 219.832031 175.339844 220.058594 175.648438 C 220.285156 175.957031 220.453125 176.277344 220.570312 176.605469 C 220.6875 176.9375 220.742188 177.269531 220.742188 177.605469 Z M 220.742188 177.605469 " fill-opacity="1" fill-rule="nonzero"/><path fill="#e0555c" d="M 172.652344 177.132812 C 172.652344 177.46875 172.59375 177.800781 172.480469 178.128906 C 172.363281 178.457031 172.195312 178.777344 171.96875 179.085938 C 171.742188 179.398438 171.464844 179.691406 171.136719 179.972656 C 170.804688 180.25 170.433594 180.507812 170.015625 180.746094 C 169.597656 180.980469 169.140625 181.195312 168.652344 181.378906 C 168.160156 181.566406 167.640625 181.722656 167.09375 181.851562 C 166.546875 181.980469 165.984375 182.078125 165.40625 182.144531 C 164.824219 182.207031 164.238281 182.242188 163.648438 182.242188 C 163.054688 182.242188 162.46875 182.207031 161.890625 182.144531 C 161.3125 182.078125 160.746094 181.980469 160.203125 181.851562 C 159.65625 181.722656 159.136719 181.566406 158.644531 181.378906 C 158.152344 181.195312 157.699219 180.980469 157.28125 180.746094 C 156.863281 180.507812 156.488281 180.25 156.160156 179.972656 C 155.832031 179.691406 155.554688 179.398438 155.328125 179.085938 C 155.101562 178.777344 154.929688 178.457031 154.816406 178.128906 C 154.699219 177.800781 154.640625 177.46875 154.640625 177.132812 C 154.640625 176.796875 154.699219 176.464844 154.816406 176.136719 C 154.929688 175.808594 155.101562 175.488281 155.328125 175.175781 C 155.554688 174.867188 155.832031 174.574219 156.160156 174.292969 C 156.488281 174.015625 156.863281 173.757812 157.28125 173.519531 C 157.699219 173.28125 158.152344 173.070312 158.644531 172.886719 C 159.136719 172.699219 159.65625 172.542969 160.203125 172.414062 C 160.746094 172.285156 161.3125 172.1875 161.890625 172.121094 C 162.46875 172.058594 163.054688 172.023438 163.648438 172.023438 C 164.238281 172.023438 164.824219 172.058594 165.40625 172.121094 C 165.984375 172.1875 166.546875 172.285156 167.09375 172.414062 C 167.640625 172.542969 168.160156 172.699219 168.652344 172.886719 C 169.140625 173.070312 169.597656 173.28125 170.015625 173.519531 C 170.433594 173.757812 170.804688 174.015625 171.136719 174.292969 C 171.464844 174.574219 171.742188 174.867188 171.96875 175.175781 C 172.195312 175.488281 172.363281 175.808594 172.480469 176.136719 C 172.59375 176.464844 172.652344 176.796875 172.652344 177.132812 Z M 172.652344 177.132812 " fill-opacity="1" fill-rule="nonzero"/><path fill="#e0555c" d="M 260.40625 139.648438 C 259.535156 138.65625 258.242188 138.003906 256.925781 138.050781 C 255.605469 138.097656 254.304688 138.914062 253.828125 140.144531 C 253.40625 141.242188 253.652344 142.484375 254.09375 143.574219 C 255.441406 146.929688 258.648438 149.460938 262.226562 149.855469 C 264.71875 148.3125 266.695312 145.957031 267.792969 143.238281 C 268.460938 141.582031 268.75 139.53125 267.632812 138.140625 C 266.742188 137.027344 265.121094 136.667969 263.75 137.054688 C 262.382812 137.445312 261.261719 138.480469 260.40625 139.648438 Z M 260.40625 139.648438 " fill-opacity="1" fill-rule="nonzero"/><path fill="#e0555c" d="M 108.628906 200.421875 C 107.761719 199.433594 106.46875 198.777344 105.148438 198.824219 C 103.832031 198.871094 102.53125 199.691406 102.054688 200.921875 C 101.632812 202.015625 101.878906 203.261719 102.316406 204.351562 C 103.667969 207.703125 106.875 210.234375 110.453125 210.632812 C 112.941406 209.085938 114.921875 206.730469 116.019531 204.011719 C 116.6875 202.359375 116.976562 200.308594 115.859375 198.914062 C 114.96875 197.804688 113.347656 197.441406 111.976562 197.832031 C 110.605469 198.21875 109.488281 199.253906 108.628906 200.421875 Z M 108.628906 200.421875 " fill-opacity="1" fill-rule="nonzero"/><path fill="#e0555c" d="M 261.042969 195.21875 C 260.472656 194.59375 259.625 194.179688 258.757812 194.210938 C 257.894531 194.242188 257.039062 194.757812 256.726562 195.53125 C 256.449219 196.222656 256.613281 197.007812 256.898438 197.695312 C 257.785156 199.808594 259.890625 201.402344 262.242188 201.652344 C 263.875 200.679688 265.175781 199.195312 265.894531 197.480469 C 266.332031 196.4375 266.523438 195.144531 265.789062 194.265625 C 265.203125 193.566406 264.140625 193.339844 263.242188 193.585938 C 262.339844 193.832031 261.605469 194.484375 261.042969 195.21875 Z M 261.042969 195.21875 " fill-opacity="1" fill-rule="nonzero"/><path fill="#e0555c" d="M 121.894531 121.335938 C 121.324219 120.710938 120.476562 120.296875 119.609375 120.328125 C 118.742188 120.355469 117.890625 120.871094 117.578125 121.648438 C 117.300781 122.339844 117.460938 123.125 117.75 123.808594 C 118.636719 125.921875 120.742188 127.519531 123.089844 127.769531 C 124.726562 126.792969 126.023438 125.3125 126.746094 123.597656 C 127.183594 122.554688 127.375 121.261719 126.640625 120.382812 C 126.054688 119.683594 124.988281 119.453125 124.089844 119.699219 C 123.191406 119.945312 122.457031 120.597656 121.894531 121.335938 Z M 121.894531 121.335938 " fill-opacity="1" fill-rule="nonzero"/><path fill="#231f20" d="M 238.253906 255.929688 C 238.136719 255.929688 238.015625 255.902344 237.902344 255.84375 L 237.898438 255.84375 L 119.019531 255.355469 C 118.589844 255.351562 118.238281 255 118.242188 254.570312 C 118.242188 254.140625 118.59375 253.792969 119.023438 253.796875 L 238.085938 254.285156 C 238.207031 254.285156 238.328125 254.316406 238.4375 254.371094 L 238.605469 254.457031 C 238.988281 254.652344 239.140625 255.121094 238.945312 255.503906 C 238.808594 255.773438 238.535156 255.929688 238.25 255.929688 Z M 238.253906 255.929688 " fill-opacity="1" fill-rule="nonzero"/><path fill="#231f20" d="M 228.582031 233.257812 C 223.625 233.257812 218.652344 230.925781 215.652344 226.964844 C 212.445312 222.730469 211.636719 217.363281 210.855469 212.167969 C 210.066406 206.921875 209.320312 201.964844 206.328125 198.046875 C 206.066406 197.703125 206.128906 197.214844 206.472656 196.953125 C 206.816406 196.691406 207.304688 196.757812 207.566406 197.097656 C 210.804688 201.335938 211.613281 206.726562 212.398438 211.9375 C 213.183594 217.167969 213.925781 222.105469 216.894531 226.023438 C 220.277344 230.492188 226.441406 232.660156 231.878906 231.300781 C 237.316406 229.941406 241.730469 225.125 242.609375 219.589844 C 242.679688 219.164062 243.078125 218.875 243.503906 218.941406 C 243.925781 219.007812 244.21875 219.40625 244.148438 219.832031 C 243.171875 225.96875 238.28125 231.304688 232.257812 232.8125 C 231.054688 233.113281 229.816406 233.261719 228.582031 233.261719 Z M 228.582031 233.257812 " fill-opacity="1" fill-rule="nonzero"/><path fill="#231f20" d="M 224.085938 255.371094 C 223.675781 255.371094 223.328125 255.046875 223.308594 254.628906 C 222.878906 246.300781 221.339844 238.058594 218.738281 230.132812 C 218.605469 229.722656 218.828125 229.28125 219.238281 229.148438 C 219.644531 229.011719 220.085938 229.234375 220.21875 229.644531 C 222.867188 237.703125 224.429688 246.082031 224.867188 254.550781 C 224.886719 254.980469 224.558594 255.347656 224.128906 255.367188 C 224.113281 255.367188 224.101562 255.371094 224.085938 255.371094 Z M 224.085938 255.371094 " fill-opacity="1" fill-rule="nonzero"/><path fill="#231f20" d="M 236.722656 223.125 C 230.898438 223.125 226.160156 217.957031 226.160156 211.609375 C 226.160156 205.257812 230.898438 200.089844 236.722656 200.089844 C 242.546875 200.089844 247.285156 205.257812 247.285156 211.609375 C 247.285156 217.957031 242.546875 223.125 236.722656 223.125 Z M 236.722656 201.648438 C 231.757812 201.648438 227.71875 206.117188 227.71875 211.609375 C 227.71875 217.097656 231.757812 221.566406 236.722656 221.566406 C 241.6875 221.566406 245.726562 217.097656 245.726562 211.609375 C 245.726562 206.117188 241.6875 201.648438 236.722656 201.648438 Z M 236.722656 201.648438 " fill-opacity="1" fill-rule="nonzero"/><path fill="#231f20" d="M 140.105469 223.125 C 134.277344 223.125 129.539062 217.957031 129.539062 211.609375 C 129.539062 205.257812 134.277344 200.089844 140.105469 200.089844 C 145.929688 200.089844 150.667969 205.257812 150.667969 211.609375 C 150.667969 217.957031 145.929688 223.125 140.105469 223.125 Z M 140.105469 201.648438 C 135.140625 201.648438 131.097656 206.117188 131.097656 211.609375 C 131.097656 217.097656 135.140625 221.566406 140.105469 221.566406 C 145.070312 221.566406 149.109375 217.097656 149.109375 211.609375 C 149.109375 206.117188 145.070312 201.648438 140.105469 201.648438 Z M 140.105469 201.648438 " fill-opacity="1" fill-rule="nonzero"/><path fill="#231f20" d="M 146.46875 204.117188 C 146.222656 204.117188 145.976562 204 145.828125 203.78125 C 145.582031 203.425781 145.675781 202.941406 146.027344 202.695312 C 150.691406 199.496094 156.097656 197.25 161.65625 196.203125 C 162.078125 196.121094 162.488281 196.402344 162.566406 196.824219 C 162.644531 197.25 162.367188 197.65625 161.945312 197.734375 C 156.597656 198.742188 151.398438 200.902344 146.910156 203.980469 C 146.777344 204.074219 146.621094 204.117188 146.46875 204.117188 Z M 146.46875 204.117188 " fill-opacity="1" fill-rule="nonzero"/><path fill="#231f20" d="M 147.546875 233.109375 C 147.386719 233.109375 147.222656 233.109375 147.058594 233.101562 C 143.550781 232.984375 140.222656 231.671875 137.691406 229.414062 C 135.074219 227.074219 133.441406 223.78125 133.214844 220.382812 C 133.1875 219.953125 133.511719 219.582031 133.941406 219.554688 C 134.371094 219.527344 134.742188 219.851562 134.773438 220.28125 C 134.96875 223.273438 136.414062 226.179688 138.730469 228.25 C 140.957031 230.238281 144.011719 231.441406 147.113281 231.546875 C 150.007812 231.644531 152.714844 230.765625 154.550781 229.132812 C 156.734375 227.191406 157.804688 224.203125 158.75 221.566406 L 167.207031 197.976562 C 167.351562 197.570312 167.796875 197.359375 168.203125 197.507812 C 168.609375 197.652344 168.820312 198.097656 168.671875 198.503906 L 160.21875 222.09375 C 159.261719 224.765625 158.066406 228.09375 155.585938 230.296875 C 153.558594 232.097656 150.652344 233.109375 147.546875 233.109375 Z M 147.546875 233.109375 " fill-opacity="1" fill-rule="nonzero"/><path fill="#231f20" d="M 153.933594 234.78125 C 153.527344 234.78125 153.183594 234.464844 153.15625 234.050781 L 152.957031 230.933594 C 152.929688 230.507812 153.257812 230.136719 153.6875 230.109375 C 154.117188 230.082031 154.488281 230.40625 154.515625 230.835938 L 154.714844 233.953125 C 154.742188 234.382812 154.414062 234.753906 153.984375 234.78125 C 153.96875 234.78125 153.949219 234.78125 153.933594 234.78125 Z M 153.933594 234.78125 " fill-opacity="1" fill-rule="nonzero"/><path fill="#231f20" d="M 134.488281 203.550781 C 134.21875 203.550781 133.957031 203.410156 133.8125 203.160156 C 131.207031 198.636719 128.515625 193.960938 125.367188 189.308594 C 122.421875 189.257812 119.949219 187.933594 118.363281 186.800781 C 116.125 185.203125 114.386719 183.132812 112.980469 181.316406 C 108.460938 175.480469 104.972656 168.976562 102.605469 161.984375 C 101.515625 158.75 100.40625 154.53125 101.535156 150.574219 C 102.398438 147.554688 104.585938 144.898438 107.378906 143.46875 C 110.175781 142.039062 113.609375 141.824219 116.5625 142.890625 C 119.46875 143.941406 122.058594 146.148438 124.703125 149.835938 C 129 155.816406 131.722656 162.765625 133.820312 168.769531 C 134.910156 171.894531 135.878906 174.96875 135.785156 178.222656 C 135.6875 181.6875 134.183594 184.835938 131.726562 186.789062 C 134.042969 191.367188 136.585938 195.890625 139.289062 200.238281 C 139.515625 200.601562 139.40625 201.082031 139.039062 201.3125 C 138.675781 201.539062 138.195312 201.425781 137.96875 201.0625 C 135.121094 196.488281 132.457031 191.722656 130.042969 186.902344 C 129.867188 186.554688 129.976562 186.128906 130.296875 185.910156 C 132.667969 184.285156 134.136719 181.394531 134.230469 178.179688 C 134.316406 175.1875 133.390625 172.265625 132.347656 169.285156 C 130.289062 163.382812 127.621094 156.566406 123.4375 150.742188 C 120.984375 147.324219 118.628906 145.296875 116.03125 144.355469 C 113.476562 143.429688 110.507812 143.617188 108.089844 144.855469 C 105.671875 146.089844 103.78125 148.386719 103.035156 151 C 102.023438 154.546875 103.0625 158.464844 104.085938 161.484375 C 106.390625 168.3125 109.800781 174.664062 114.214844 180.363281 C 115.550781 182.085938 117.195312 184.050781 119.269531 185.53125 C 120.738281 186.582031 123.058594 187.820312 125.757812 187.746094 C 126.023438 187.738281 126.273438 187.867188 126.425781 188.085938 C 129.707031 192.902344 132.484375 197.722656 135.164062 202.378906 C 135.378906 202.753906 135.253906 203.230469 134.878906 203.445312 C 134.757812 203.515625 134.625 203.546875 134.492188 203.546875 Z M 134.488281 203.550781 " fill-opacity="1" fill-rule="nonzero"/><path fill="#231f20" d="M 119.589844 180.632812 C 119.324219 180.632812 119.066406 180.496094 118.921875 180.25 C 113.984375 171.964844 109.664062 163.226562 106.085938 154.269531 C 105.925781 153.871094 106.121094 153.417969 106.523438 153.257812 C 106.921875 153.097656 107.375 153.289062 107.535156 153.691406 C 111.082031 162.570312 115.363281 171.238281 120.261719 179.453125 C 120.480469 179.824219 120.359375 180.300781 119.992188 180.523438 C 119.867188 180.597656 119.726562 180.632812 119.59375 180.632812 Z M 119.589844 180.632812 " fill-opacity="1" fill-rule="nonzero"/><path fill="#231f20" d="M 128.613281 177.636719 C 128.328125 177.636719 128.054688 177.484375 127.917969 177.210938 C 123.394531 168.320312 119.128906 159.148438 115.238281 149.960938 C 115.070312 149.566406 115.253906 149.109375 115.652344 148.941406 C 116.046875 148.773438 116.503906 148.957031 116.671875 149.355469 C 120.550781 158.511719 124.800781 167.644531 129.304688 176.507812 C 129.5 176.890625 129.347656 177.359375 128.964844 177.554688 C 128.851562 177.613281 128.730469 177.640625 128.613281 177.640625 Z M 128.613281 177.636719 " fill-opacity="1" fill-rule="nonzero"/><path fill="#231f20" d="M 137.109375 164.613281 C 135.21875 164.613281 133.253906 163.765625 131.953125 162.210938 C 130.210938 160.128906 129.636719 157.0625 130.414062 154.011719 C 131.691406 149.007812 136.359375 145.179688 141.515625 144.914062 C 141.949219 144.894531 142.3125 145.222656 142.335938 145.648438 C 142.359375 146.078125 142.027344 146.445312 141.597656 146.46875 C 137.175781 146.699219 133.019531 150.105469 131.925781 154.398438 C 131.28125 156.925781 131.75 159.539062 133.148438 161.210938 C 134.667969 163.027344 137.460938 163.605469 139.25 162.472656 C 139.613281 162.246094 140.09375 162.351562 140.324219 162.714844 C 140.554688 163.078125 140.445312 163.558594 140.082031 163.792969 C 139.203125 164.347656 138.167969 164.613281 137.109375 164.613281 Z M 137.109375 164.613281 " fill-opacity="1" fill-rule="nonzero"/><path fill="#231f20" d="M 238.789062 168.582031 C 237.730469 168.582031 236.695312 168.316406 235.816406 167.757812 C 235.453125 167.527344 235.34375 167.046875 235.574219 166.679688 C 235.804688 166.316406 236.285156 166.210938 236.648438 166.441406 C 238.433594 167.570312 241.230469 166.992188 242.75 165.175781 C 244.148438 163.503906 244.613281 160.894531 243.972656 158.363281 C 242.878906 154.074219 238.71875 150.664062 234.300781 150.433594 C 233.867188 150.414062 233.539062 150.046875 233.5625 149.617188 C 233.585938 149.1875 233.953125 148.859375 234.378906 148.878906 C 239.535156 149.148438 244.207031 152.972656 245.480469 157.976562 C 246.261719 161.03125 245.6875 164.09375 243.945312 166.175781 C 242.644531 167.730469 240.675781 168.582031 238.789062 168.582031 Z M 238.789062 168.582031 " fill-opacity="1" fill-rule="nonzero"/><path fill="#231f20" d="M 229.15625 204.667969 C 228.964844 204.667969 228.777344 204.601562 228.628906 204.464844 C 224.011719 200.226562 218.035156 197.574219 211.796875 196.996094 C 211.367188 196.957031 211.054688 196.574219 211.09375 196.148438 C 211.132812 195.71875 211.515625 195.402344 211.941406 195.445312 C 218.515625 196.054688 224.816406 198.851562 229.683594 203.3125 C 230 203.605469 230.019531 204.097656 229.730469 204.414062 C 229.574219 204.582031 229.367188 204.667969 229.15625 204.667969 Z M 229.15625 204.667969 " fill-opacity="1" fill-rule="nonzero"/><path fill="#231f20" d="M 239.6875 202.101562 C 239.519531 202.101562 239.347656 202.046875 239.207031 201.933594 C 238.871094 201.667969 238.808594 201.179688 239.078125 200.84375 L 239.085938 200.835938 C 242.3125 196.78125 245.644531 192.59375 249.011719 188.21875 C 247.277344 186.03125 246.511719 182.867188 246.960938 179.609375 C 247.402344 176.417969 248.8125 173.542969 250.269531 170.910156 C 251.703125 168.324219 253.515625 165.351562 256.0625 162.902344 C 256.695312 162.292969 257.558594 161.539062 258.621094 161.082031 C 259.777344 160.589844 261.015625 160.542969 262.023438 160.957031 C 263.128906 161.414062 263.839844 162.449219 263.753906 163.472656 C 263.691406 164.214844 263.257812 164.792969 262.9375 165.210938 L 256.144531 174.15625 C 255.882812 174.5 255.394531 174.566406 255.050781 174.304688 C 254.710938 174.046875 254.640625 173.558594 254.902344 173.214844 L 261.695312 164.269531 C 261.910156 163.984375 262.179688 163.636719 262.203125 163.34375 C 262.234375 162.964844 261.835938 162.566406 261.429688 162.398438 C 260.808594 162.140625 260.007812 162.183594 259.238281 162.515625 C 258.40625 162.871094 257.683594 163.507812 257.144531 164.023438 C 254.742188 166.332031 253.011719 169.179688 251.632812 171.664062 C 250.25 174.164062 248.910156 176.882812 248.507812 179.820312 C 248.085938 182.878906 248.863281 185.808594 250.589844 187.65625 C 250.847656 187.933594 250.871094 188.363281 250.636719 188.664062 C 247.132812 193.230469 243.664062 197.589844 240.308594 201.804688 C 240.152344 201.996094 239.921875 202.101562 239.691406 202.101562 Z M 239.6875 202.101562 " fill-opacity="1" fill-rule="nonzero"/><path fill="#231f20" d="M 260.929688 176.695312 C 260.761719 176.695312 260.589844 176.640625 260.449219 176.527344 C 260.109375 176.261719 260.050781 175.769531 260.316406 175.433594 L 266.25 167.886719 C 266.875 167.089844 267.527344 166.175781 267.335938 165.363281 C 267.226562 164.886719 266.789062 164.433594 266.167969 164.148438 C 265.269531 163.738281 264.199219 163.734375 263.300781 164.132812 C 262.90625 164.308594 262.445312 164.128906 262.273438 163.738281 C 262.097656 163.34375 262.273438 162.882812 262.667969 162.707031 C 263.96875 162.128906 265.519531 162.136719 266.816406 162.730469 C 267.886719 163.21875 268.628906 164.050781 268.855469 165.007812 C 269.230469 166.617188 268.089844 168.070312 267.476562 168.847656 L 261.542969 176.398438 C 261.390625 176.59375 261.160156 176.695312 260.929688 176.695312 Z M 260.929688 176.695312 " fill-opacity="1" fill-rule="nonzero"/><path fill="#231f20" d="M 242.859375 203.546875 C 242.6875 203.546875 242.511719 203.492188 242.367188 203.375 C 242.035156 203.101562 241.984375 202.609375 242.257812 202.277344 L 253.015625 189.089844 C 253.199219 188.863281 253.492188 188.761719 253.777344 188.820312 C 256.328125 189.355469 259.300781 188.546875 261.738281 186.65625 C 264.089844 184.832031 265.851562 182.230469 267.410156 179.933594 C 268.925781 177.691406 270.648438 175.152344 271.75 172.421875 C 272.167969 171.390625 272.601562 170.054688 272.246094 168.871094 C 272.03125 168.15625 271.46875 167.539062 270.703125 167.179688 C 269.9375 166.820312 269.101562 166.777344 268.414062 167.070312 C 268.019531 167.238281 267.5625 167.050781 267.394531 166.65625 C 267.226562 166.257812 267.410156 165.800781 267.808594 165.632812 C 268.902344 165.171875 270.199219 165.21875 271.363281 165.769531 C 272.53125 166.320312 273.394531 167.285156 273.738281 168.421875 C 274.230469 170.070312 273.707031 171.738281 273.195312 173.007812 C 272.03125 175.890625 270.261719 178.503906 268.699219 180.808594 C 267.078125 183.199219 265.242188 185.910156 262.695312 187.886719 C 260.046875 189.941406 256.808594 190.875 253.933594 190.433594 L 243.464844 203.261719 C 243.308594 203.453125 243.085938 203.550781 242.859375 203.550781 Z M 242.859375 203.546875 " fill-opacity="1" fill-rule="nonzero"/><path fill="#231f20" d="M 193.195312 234.898438 C 191.847656 234.898438 190.480469 234.886719 189.085938 234.863281 C 188.753906 234.855469 188.460938 234.640625 188.359375 234.324219 C 188.066406 233.417969 187.867188 232.515625 187.605469 231.167969 C 187.5625 230.945312 187.617188 230.714844 187.757812 230.535156 C 187.898438 230.355469 188.109375 230.25 188.339844 230.238281 L 206.601562 229.507812 C 206.820312 229.496094 207.023438 229.582031 207.179688 229.730469 C 207.332031 229.882812 207.414062 230.089844 207.410156 230.304688 L 207.335938 233.710938 C 207.328125 234.113281 207.011719 234.445312 206.609375 234.46875 C 202.273438 234.753906 197.855469 234.894531 193.195312 234.894531 Z M 189.679688 233.3125 C 195.355469 233.398438 200.640625 233.28125 205.792969 232.960938 L 205.832031 231.097656 L 189.3125 231.761719 C 189.433594 232.351562 189.550781 232.847656 189.679688 233.3125 Z M 189.679688 233.3125 " fill-opacity="1" fill-rule="nonzero"/><path fill="#231f20" d="M 200.96875 221.605469 C 199.082031 221.605469 197.546875 220.070312 197.546875 218.183594 C 197.546875 216.300781 199.082031 214.765625 200.96875 214.765625 C 202.851562 214.765625 204.386719 216.300781 204.386719 218.183594 C 204.386719 220.070312 202.851562 221.605469 200.96875 221.605469 Z M 200.96875 216.324219 C 199.941406 216.324219 199.105469 217.15625 199.105469 218.183594 C 199.105469 219.210938 199.941406 220.046875 200.96875 220.046875 C 201.992188 220.046875 202.828125 219.210938 202.828125 218.183594 C 202.828125 217.15625 201.992188 216.324219 200.96875 216.324219 Z M 200.96875 216.324219 " fill-opacity="1" fill-rule="nonzero"/><path fill="#231f20" d="M 171.355469 221.605469 C 169.46875 221.605469 167.933594 220.070312 167.933594 218.183594 C 167.933594 216.300781 169.46875 214.765625 171.355469 214.765625 C 173.238281 214.765625 174.773438 216.300781 174.773438 218.183594 C 174.773438 220.070312 173.238281 221.605469 171.355469 221.605469 Z M 171.355469 216.324219 C 170.328125 216.324219 169.492188 217.15625 169.492188 218.183594 C 169.492188 219.210938 170.328125 220.046875 171.355469 220.046875 C 172.382812 220.046875 173.214844 219.210938 173.214844 218.183594 C 173.214844 217.15625 172.382812 216.324219 171.355469 216.324219 Z M 171.355469 216.324219 " fill-opacity="1" fill-rule="nonzero"/><path fill="#231f20" d="M 178.800781 199.734375 C 174.429688 199.734375 170.394531 199.453125 166.390625 198.667969 C 158.914062 197.199219 152.648438 194.027344 148.273438 189.488281 C 141.824219 182.800781 139.925781 173.871094 139.46875 167.554688 C 138.890625 159.585938 140.167969 151.625 141.402344 143.929688 C 141.433594 143.734375 141.539062 143.554688 141.699219 143.433594 C 153.53125 134.390625 170.457031 130.003906 188.136719 131.398438 C 203.59375 132.621094 219.722656 138.664062 234.777344 148.882812 C 234.941406 148.992188 235.058594 149.164062 235.101562 149.359375 C 237.050781 158.300781 237.355469 164.933594 236.125 171.546875 C 234.652344 179.449219 230.761719 186.292969 225.171875 190.808594 C 221.15625 194.054688 215.941406 196.367188 209.675781 197.675781 C 204.136719 198.835938 198.429688 199.109375 192.910156 199.375 C 192.480469 199.390625 192.117188 199.0625 192.09375 198.632812 C 192.074219 198.203125 192.40625 197.839844 192.835938 197.820312 C 198.292969 197.554688 203.9375 197.285156 209.355469 196.152344 C 215.378906 194.894531 220.371094 192.6875 224.191406 189.597656 C 229.492188 185.3125 233.1875 178.800781 234.589844 171.261719 C 235.769531 164.941406 235.484375 158.566406 233.644531 149.996094 C 218.886719 140.035156 203.113281 134.144531 188.011719 132.953125 C 170.832031 131.597656 154.410156 135.800781 142.890625 144.488281 C 141.6875 152 140.464844 159.757812 141.023438 167.445312 C 141.644531 176.007812 144.617188 183.453125 149.394531 188.410156 C 154.640625 193.847656 161.695312 196.160156 166.691406 197.140625 C 172.820312 198.34375 179.074219 198.332031 186.578125 197.945312 C 187.007812 197.925781 187.375 198.253906 187.398438 198.683594 C 187.417969 199.117188 187.089844 199.480469 186.660156 199.503906 C 183.890625 199.644531 181.289062 199.738281 178.800781 199.738281 Z M 178.800781 199.734375 " fill-opacity="1" fill-rule="nonzero"/><path fill="#231f20" d="M 238.292969 150.824219 C 238.074219 150.824219 237.855469 150.734375 237.703125 150.554688 C 237.421875 150.226562 237.460938 149.734375 237.785156 149.457031 C 241.941406 145.894531 243.195312 138.789062 240.632812 133.285156 C 237.898438 127.402344 232.226562 123.371094 228.199219 120.851562 C 215.527344 112.921875 200.902344 108.492188 185.902344 108.039062 C 170.972656 107.59375 156.089844 111.097656 142.867188 118.183594 C 140.046875 119.695312 137.226562 121.464844 135.710938 124.15625 C 134.074219 127.066406 134.148438 130.652344 134.378906 134.378906 C 134.546875 137.058594 134.785156 139.429688 136.027344 141.324219 C 137.210938 143.128906 139.980469 144.421875 141.78125 143.378906 C 142.152344 143.164062 142.628906 143.289062 142.847656 143.664062 C 143.0625 144.035156 142.933594 144.511719 142.5625 144.726562 C 139.929688 146.253906 136.316406 144.609375 134.726562 142.179688 C 133.15625 139.785156 132.964844 136.714844 132.824219 134.472656 C 132.574219 130.503906 132.507812 126.667969 134.351562 123.390625 C 136.0625 120.351562 139.101562 118.429688 142.128906 116.808594 C 155.59375 109.59375 170.742188 106.023438 185.949219 106.480469 C 201.226562 106.941406 216.121094 111.453125 229.023438 119.53125 C 233.222656 122.15625 239.136719 126.371094 242.046875 132.628906 C 243.386719 135.507812 243.824219 138.910156 243.285156 142.210938 C 242.722656 145.648438 241.128906 148.640625 238.800781 150.636719 C 238.652344 150.765625 238.472656 150.824219 238.292969 150.824219 Z M 238.292969 150.824219 " fill-opacity="1" fill-rule="nonzero"/><path fill="#231f20" d="M 213.261719 113.070312 C 212.960938 113.070312 212.675781 112.894531 212.546875 112.601562 C 212.375 112.207031 212.554688 111.75 212.949219 111.574219 C 219.5 108.710938 224.496094 104.050781 227.019531 98.453125 C 229.839844 92.195312 229.238281 84.957031 225.488281 80.015625 C 222.945312 76.660156 218.933594 74.128906 212.867188 72.042969 C 203.339844 68.769531 193.015625 67.628906 183.003906 68.742188 C 176.375 69.476562 171.949219 71.253906 169.078125 74.324219 C 164.648438 79.0625 164.726562 86.136719 166.273438 91.175781 C 168.085938 97.078125 171.898438 102.113281 175.582031 106.980469 C 175.84375 107.324219 175.773438 107.8125 175.429688 108.074219 C 175.089844 108.332031 174.597656 108.265625 174.339844 107.921875 C 170.75 103.175781 166.679688 97.800781 164.785156 91.632812 C 163.109375 86.175781 163.058594 78.484375 167.9375 73.261719 C 172.066406 68.847656 178.414062 67.683594 182.832031 67.191406 C 193.070312 66.054688 203.628906 67.222656 213.371094 70.570312 C 217.382812 71.949219 223.132812 74.328125 226.730469 79.070312 C 230.820312 84.464844 231.492188 92.324219 228.441406 99.09375 C 225.757812 105.046875 220.480469 109.984375 213.574219 113.003906 C 213.472656 113.050781 213.367188 113.070312 213.261719 113.070312 Z M 213.261719 113.070312 " fill-opacity="1" fill-rule="nonzero"/><path fill="#231f20" d="M 240.84375 128.039062 C 239.65625 128.039062 238.464844 127.945312 237.289062 127.75 C 236.863281 127.679688 236.578125 127.277344 236.648438 126.851562 C 236.71875 126.429688 237.121094 126.140625 237.542969 126.210938 C 245.816406 127.589844 254.761719 123.625 259.292969 116.570312 C 261.773438 112.710938 262.652344 108.40625 261.710938 104.761719 C 260.855469 101.457031 258.507812 98.671875 256.816406 96.867188 C 252.894531 92.679688 248.707031 89.785156 244.375 88.269531 C 239.300781 86.492188 233.976562 86.679688 229.761719 88.785156 C 229.378906 88.976562 228.910156 88.820312 228.71875 88.433594 C 228.523438 88.046875 228.683594 87.582031 229.066406 87.390625 C 233.652344 85.097656 239.421875 84.882812 244.890625 86.796875 C 249.460938 88.398438 253.855469 91.429688 257.953125 95.804688 C 259.761719 97.734375 262.273438 100.71875 263.21875 104.371094 C 264.269531 108.4375 263.316406 113.1875 260.601562 117.414062 C 256.386719 123.972656 248.617188 128.039062 240.84375 128.039062 Z M 240.84375 128.039062 " fill-opacity="1" fill-rule="nonzero"/><path fill="#231f20" d="M 149.402344 114.5625 C 149.292969 114.5625 149.175781 114.535156 149.070312 114.484375 C 142.644531 111.4375 137.875 104.640625 136.921875 97.164062 C 136.023438 90.125 138.265625 82.683594 143.078125 76.75 C 147.414062 71.402344 153.835938 67.316406 161.15625 65.253906 C 164.730469 64.246094 167.910156 63.871094 170.878906 64.109375 C 174.460938 64.394531 177.65625 65.597656 180.125 67.582031 C 180.460938 67.851562 180.511719 68.34375 180.242188 68.679688 C 179.972656 69.015625 179.484375 69.066406 179.148438 68.796875 C 176.925781 67.007812 174.023438 65.925781 170.753906 65.664062 C 167.972656 65.441406 164.972656 65.796875 161.582031 66.753906 C 154.566406 68.734375 148.421875 72.632812 144.289062 77.730469 C 139.742188 83.339844 137.621094 90.351562 138.464844 96.96875 C 139.355469 103.929688 143.777344 110.253906 149.738281 113.078125 C 150.125 113.261719 150.289062 113.726562 150.105469 114.117188 C 149.972656 114.398438 149.695312 114.5625 149.402344 114.5625 Z M 149.402344 114.5625 " fill-opacity="1" fill-rule="nonzero"/><path fill="#231f20" d="M 137.832031 121.285156 C 137.808594 121.285156 137.78125 121.28125 137.753906 121.28125 C 132.152344 120.714844 127.300781 116.113281 124.980469 111.800781 C 122.429688 107.066406 122.398438 101.164062 124.894531 96.402344 C 127.390625 91.640625 132.261719 88.308594 137.605469 87.710938 C 138.035156 87.660156 138.421875 87.96875 138.46875 88.398438 C 138.515625 88.824219 138.207031 89.210938 137.78125 89.257812 C 132.941406 89.800781 128.535156 92.8125 126.277344 97.125 C 124.015625 101.433594 124.046875 106.773438 126.351562 111.058594 C 128.476562 115.011719 132.875 119.222656 137.910156 119.730469 C 138.339844 119.773438 138.652344 120.15625 138.609375 120.582031 C 138.566406 120.984375 138.230469 121.285156 137.835938 121.285156 Z M 137.832031 121.285156 " fill-opacity="1" fill-rule="nonzero"/><path fill="#231f20" d="M 164.042969 142.9375 C 163.632812 142.9375 163.289062 142.617188 163.265625 142.199219 C 163.242188 141.769531 163.574219 141.402344 164 141.378906 C 172.792969 140.902344 181.335938 137.503906 188.050781 131.8125 C 188.378906 131.53125 188.871094 131.574219 189.148438 131.902344 C 189.429688 132.230469 189.386719 132.722656 189.058594 133 C 182.085938 138.914062 173.21875 142.441406 164.085938 142.9375 C 164.074219 142.9375 164.058594 142.9375 164.042969 142.9375 Z M 164.042969 142.9375 " fill-opacity="1" fill-rule="nonzero"/><path fill="#231f20" d="M 156.535156 141.292969 C 156.109375 141.292969 155.765625 140.957031 155.753906 140.53125 C 155.746094 140.101562 156.085938 139.746094 156.515625 139.734375 C 161.066406 139.628906 165.578125 138.40625 169.558594 136.195312 C 169.9375 135.988281 170.410156 136.125 170.621094 136.5 C 170.828125 136.875 170.691406 137.351562 170.316406 137.5625 C 166.113281 139.894531 161.355469 141.183594 156.550781 141.292969 C 156.546875 141.292969 156.539062 141.292969 156.535156 141.292969 Z M 156.535156 141.292969 " fill-opacity="1" fill-rule="nonzero"/><path fill="#231f20" d="M 157.292969 146.054688 C 157.035156 146.054688 156.785156 145.929688 156.636719 145.695312 C 156.402344 145.335938 156.507812 144.851562 156.871094 144.621094 C 159.363281 143.011719 162.726562 142.757812 165.433594 143.96875 C 165.828125 144.144531 166.003906 144.605469 165.828125 144.996094 C 165.652344 145.390625 165.191406 145.566406 164.796875 145.390625 C 162.558594 144.386719 159.777344 144.597656 157.714844 145.929688 C 157.585938 146.015625 157.4375 146.054688 157.292969 146.054688 Z M 157.292969 146.054688 " fill-opacity="1" fill-rule="nonzero"/><path fill="#231f20" d="M 222.15625 149.207031 C 221.96875 149.207031 221.785156 149.144531 221.636719 149.007812 C 218.699219 146.359375 214.453125 145.121094 210.554688 145.769531 C 210.128906 145.839844 209.726562 145.554688 209.65625 145.128906 C 209.585938 144.707031 209.871094 144.304688 210.296875 144.234375 C 214.71875 143.496094 219.347656 144.847656 222.679688 147.851562 C 223 148.140625 223.023438 148.632812 222.734375 148.953125 C 222.582031 149.121094 222.371094 149.210938 222.15625 149.210938 Z M 222.15625 149.207031 " fill-opacity="1" fill-rule="nonzero"/><path fill="#231f20" d="M 187.550781 180.191406 C 187.472656 180.191406 187.394531 180.191406 187.316406 180.1875 C 182.144531 180.0625 177.46875 175.777344 176.886719 170.636719 C 176.839844 170.210938 177.148438 169.824219 177.574219 169.777344 C 178.003906 169.726562 178.386719 170.035156 178.4375 170.460938 C 178.921875 174.785156 183.007812 178.523438 187.355469 178.628906 C 191.703125 178.734375 195.964844 175.195312 196.65625 170.902344 C 196.726562 170.476562 197.125 170.1875 197.550781 170.257812 C 197.976562 170.324219 198.265625 170.726562 198.195312 171.148438 C 197.382812 176.179688 192.636719 180.1875 187.550781 180.1875 Z M 187.550781 180.191406 " fill-opacity="1" fill-rule="nonzero"/><path fill="#231f20" d="M 210.875 170.535156 C 207.03125 170.535156 203.902344 167.292969 203.902344 163.304688 C 203.902344 159.320312 207.03125 156.074219 210.875 156.074219 C 214.714844 156.074219 217.84375 159.320312 217.84375 163.304688 C 217.84375 167.292969 214.714844 170.535156 210.875 170.535156 Z M 210.875 157.632812 C 207.890625 157.632812 205.460938 160.175781 205.460938 163.304688 C 205.460938 166.429688 207.890625 168.976562 210.875 168.976562 C 213.855469 168.976562 216.285156 166.429688 216.285156 163.304688 C 216.285156 160.175781 213.855469 157.632812 210.875 157.632812 Z M 210.875 157.632812 " fill-opacity="1" fill-rule="nonzero"/><path fill="#231f20" d="M 210.875 169.667969 C 207.699219 169.667969 205.117188 166.851562 205.117188 163.390625 C 205.117188 159.929688 207.699219 157.113281 210.875 157.113281 C 214.046875 157.113281 216.632812 159.929688 216.632812 163.390625 C 216.632812 166.851562 214.046875 169.667969 210.875 169.667969 Z M 210.875 158.671875 C 208.558594 158.671875 206.675781 160.789062 206.675781 163.390625 C 206.675781 165.992188 208.558594 168.109375 210.875 168.109375 C 213.1875 168.109375 215.070312 165.992188 215.070312 163.390625 C 215.070312 160.789062 213.1875 158.671875 210.875 158.671875 Z M 210.875 158.671875 " fill-opacity="1" fill-rule="nonzero"/><path fill="#231f20" d="M 210.886719 168.195312 C 208.285156 168.195312 206.167969 165.898438 206.167969 163.074219 C 206.167969 160.25 208.285156 157.953125 210.886719 157.953125 C 213.488281 157.953125 215.605469 160.25 215.605469 163.074219 C 215.605469 165.898438 213.488281 168.195312 210.886719 168.195312 Z M 210.886719 159.511719 C 209.140625 159.511719 207.726562 161.113281 207.726562 163.078125 C 207.726562 165.042969 209.144531 166.640625 210.886719 166.640625 C 212.625 166.640625 214.046875 165.042969 214.046875 163.078125 C 214.046875 161.113281 212.625 159.511719 210.886719 159.511719 Z M 210.886719 159.511719 " fill-opacity="1" fill-rule="nonzero"/><path fill="#231f20" d="M 210.886719 166.875 C 208.902344 166.875 207.292969 165.167969 207.292969 163.066406 C 207.292969 160.964844 208.90625 159.257812 210.886719 159.257812 C 212.867188 159.257812 214.476562 160.964844 214.476562 163.066406 C 214.476562 165.167969 212.867188 166.875 210.886719 166.875 Z M 210.886719 160.816406 C 209.761719 160.816406 208.851562 161.824219 208.851562 163.066406 C 208.851562 164.308594 209.761719 165.316406 210.886719 165.316406 C 212.007812 165.316406 212.917969 164.308594 212.917969 163.066406 C 212.917969 161.824219 212.007812 160.816406 210.886719 160.816406 Z M 210.886719 160.816406 " fill-opacity="1" fill-rule="nonzero"/><path fill="#231f20" d="M 210.710938 165.75 C 209.445312 165.75 208.417969 164.507812 208.417969 162.980469 C 208.417969 161.453125 209.445312 160.210938 210.710938 160.210938 C 211.976562 160.210938 213.007812 161.453125 213.007812 162.980469 C 213.007812 164.507812 211.976562 165.75 210.710938 165.75 Z M 210.710938 161.769531 C 210.363281 161.769531 209.976562 162.285156 209.976562 162.980469 C 209.976562 163.671875 210.363281 164.191406 210.710938 164.191406 C 211.058594 164.191406 211.449219 163.671875 211.449219 162.980469 C 211.449219 162.285156 211.058594 161.769531 210.710938 161.769531 Z M 210.710938 161.769531 " fill-opacity="1" fill-rule="nonzero"/><path fill="#231f20" d="M 210.710938 164.085938 C 209.1875 164.085938 208.417969 163.707031 208.417969 162.960938 C 208.417969 162.210938 209.191406 161.832031 210.710938 161.832031 C 212.234375 161.832031 213.007812 162.210938 213.007812 162.960938 C 213.007812 163.707031 212.234375 164.085938 210.710938 164.085938 Z M 210.710938 164.085938 " fill-opacity="1" fill-rule="nonzero"/><path fill="#231f20" d="M 210.996094 165.222656 C 210.679688 165.222656 210.296875 165.050781 209.988281 164.386719 C 209.839844 164.066406 209.707031 163.644531 209.609375 163.191406 C 209.296875 161.703125 209.503906 160.871094 210.234375 160.714844 C 210.578125 160.640625 211.0625 160.726562 211.4375 161.53125 C 211.582031 161.851562 211.71875 162.273438 211.8125 162.726562 C 212.128906 164.214844 211.917969 165.046875 211.1875 165.203125 C 211.128906 165.214844 211.0625 165.222656 210.996094 165.222656 Z M 210.996094 165.222656 " fill-opacity="1" fill-rule="nonzero"/><path fill="#231f20" d="M 212.929688 160.148438 C 212.71875 160.148438 212.507812 160.0625 212.355469 159.898438 C 212.0625 159.582031 212.085938 159.085938 212.402344 158.796875 C 214.09375 157.238281 215.273438 155.136719 215.726562 152.882812 C 215.808594 152.460938 216.21875 152.1875 216.640625 152.269531 C 217.0625 152.355469 217.335938 152.765625 217.253906 153.1875 C 216.738281 155.765625 215.390625 158.164062 213.457031 159.941406 C 213.308594 160.078125 213.117188 160.148438 212.929688 160.148438 Z M 212.929688 160.148438 " fill-opacity="1" fill-rule="nonzero"/><path fill="#231f20" d="M 164.042969 170.59375 C 160.199219 170.59375 157.074219 167.351562 157.074219 163.363281 C 157.074219 159.378906 160.199219 156.132812 164.042969 156.132812 C 167.886719 156.132812 171.011719 159.378906 171.011719 163.363281 C 171.011719 167.351562 167.886719 170.59375 164.042969 170.59375 Z M 164.042969 157.691406 C 161.058594 157.691406 158.632812 160.234375 158.632812 163.363281 C 158.632812 166.492188 161.058594 169.035156 164.042969 169.035156 C 167.027344 169.035156 169.453125 166.492188 169.453125 163.363281 C 169.453125 160.234375 167.027344 157.691406 164.042969 157.691406 Z M 164.042969 157.691406 " fill-opacity="1" fill-rule="nonzero"/><path fill="#231f20" d="M 164.042969 169.726562 C 160.867188 169.726562 158.285156 166.910156 158.285156 163.449219 C 158.285156 159.988281 160.867188 157.171875 164.042969 157.171875 C 167.21875 157.171875 169.800781 159.988281 169.800781 163.449219 C 169.800781 166.910156 167.21875 169.726562 164.042969 169.726562 Z M 164.042969 158.730469 C 161.726562 158.730469 159.84375 160.847656 159.84375 163.449219 C 159.84375 166.050781 161.730469 168.167969 164.042969 168.167969 C 166.359375 168.167969 168.242188 166.050781 168.242188 163.449219 C 168.242188 160.847656 166.359375 158.730469 164.042969 158.730469 Z M 164.042969 158.730469 " fill-opacity="1" fill-rule="nonzero"/><path fill="#231f20" d="M 164.03125 168.257812 C 161.429688 168.257812 159.3125 165.957031 159.3125 163.132812 C 159.3125 160.308594 161.429688 158.011719 164.03125 158.011719 C 166.632812 158.011719 168.75 160.308594 168.75 163.132812 C 168.75 165.957031 166.632812 168.257812 164.03125 168.257812 Z M 164.03125 159.570312 C 162.289062 159.570312 160.871094 161.171875 160.871094 163.136719 C 160.871094 165.101562 162.289062 166.699219 164.03125 166.699219 C 165.773438 166.699219 167.191406 165.101562 167.191406 163.136719 C 167.191406 161.171875 165.773438 159.570312 164.03125 159.570312 Z M 164.03125 159.570312 " fill-opacity="1" fill-rule="nonzero"/><path fill="#231f20" d="M 164.03125 166.933594 C 162.050781 166.933594 160.4375 165.226562 160.4375 163.125 C 160.4375 161.023438 162.050781 159.316406 164.03125 159.316406 C 166.011719 159.316406 167.625 161.023438 167.625 163.125 C 167.625 165.226562 166.011719 166.933594 164.03125 166.933594 Z M 164.03125 160.875 C 162.910156 160.875 161.996094 161.882812 161.996094 163.125 C 161.996094 164.367188 162.910156 165.375 164.03125 165.375 C 165.152344 165.375 166.066406 164.367188 166.066406 163.125 C 166.066406 161.882812 165.152344 160.875 164.03125 160.875 Z M 164.03125 160.875 " fill-opacity="1" fill-rule="nonzero"/><path fill="#231f20" d="M 164.203125 165.808594 C 162.941406 165.808594 161.910156 164.566406 161.910156 163.039062 C 161.910156 161.511719 162.941406 160.269531 164.203125 160.269531 C 165.46875 160.269531 166.5 161.511719 166.5 163.039062 C 166.5 164.566406 165.46875 165.808594 164.203125 165.808594 Z M 164.203125 161.828125 C 163.859375 161.828125 163.46875 162.34375 163.46875 163.039062 C 163.46875 163.730469 163.859375 164.25 164.203125 164.25 C 164.550781 164.25 164.941406 163.730469 164.941406 163.039062 C 164.941406 162.34375 164.550781 161.828125 164.203125 161.828125 Z M 164.203125 161.828125 " fill-opacity="1" fill-rule="nonzero"/><path fill="#231f20" d="M 164.203125 164.144531 C 162.683594 164.144531 161.910156 163.765625 161.910156 163.019531 C 161.910156 162.269531 162.683594 161.890625 164.203125 161.890625 C 165.726562 161.890625 166.5 162.269531 166.5 163.019531 C 166.5 163.765625 165.726562 164.144531 164.203125 164.144531 Z M 165.238281 163.570312 Z M 165.238281 163.570312 " fill-opacity="1" fill-rule="nonzero"/><path fill="#231f20" d="M 163.921875 165.28125 C 163.851562 165.28125 163.789062 165.273438 163.730469 165.261719 C 163 165.105469 162.789062 164.273438 163.105469 162.785156 C 163.421875 161.296875 163.949219 160.621094 164.679688 160.773438 C 165.410156 160.925781 165.621094 161.761719 165.304688 163.25 C 165.210938 163.703125 165.074219 164.125 164.929688 164.441406 C 164.621094 165.109375 164.238281 165.28125 163.921875 165.28125 Z M 163.921875 165.28125 " fill-opacity="1" fill-rule="nonzero"/><path fill="#231f20" d="M 161.988281 160.207031 C 161.800781 160.207031 161.609375 160.140625 161.460938 160 C 159.527344 158.222656 158.175781 155.824219 157.664062 153.246094 C 157.578125 152.824219 157.851562 152.414062 158.273438 152.328125 C 158.695312 152.246094 159.109375 152.519531 159.191406 152.941406 C 159.640625 155.199219 160.824219 157.296875 162.515625 158.855469 C 162.832031 159.144531 162.851562 159.640625 162.5625 159.957031 C 162.410156 160.121094 162.199219 160.207031 161.988281 160.207031 Z M 161.988281 160.207031 " fill-opacity="1" fill-rule="nonzero"/><path fill="#231f20" d="M 192.183594 204.9375 C 192.175781 204.9375 192.171875 204.9375 192.167969 204.9375 L 182.464844 204.734375 C 182.183594 204.726562 181.667969 204.71875 181.269531 204.328125 C 180.863281 203.933594 180.84375 203.390625 180.832031 203.128906 L 180.695312 199.597656 C 180.679688 199.167969 181.015625 198.804688 181.445312 198.785156 C 181.878906 198.777344 182.234375 199.105469 182.253906 199.535156 L 182.390625 203.066406 C 182.390625 203.105469 182.390625 203.140625 182.394531 203.171875 C 182.4375 203.175781 182.476562 203.175781 182.496094 203.175781 L 192.199219 203.378906 C 192.628906 203.386719 192.972656 203.742188 192.964844 204.171875 C 192.953125 204.597656 192.605469 204.9375 192.183594 204.9375 Z M 192.183594 204.9375 " fill-opacity="1" fill-rule="nonzero"/><path fill="#231f20" d="M 198.808594 209.394531 C 190.1875 209.394531 181.488281 209.160156 172.898438 208.691406 C 172.664062 208.679688 172.449219 208.5625 172.308594 208.371094 C 172.171875 208.183594 172.125 207.941406 172.1875 207.714844 L 174.488281 198.90625 C 174.597656 198.492188 175.023438 198.242188 175.441406 198.347656 C 175.855469 198.457031 176.105469 198.882812 175.996094 199.300781 L 173.9375 207.183594 C 182.921875 207.65625 192.023438 207.871094 201.019531 207.828125 C 200.726562 204.636719 199.921875 201.535156 198.621094 198.597656 C 198.445312 198.203125 198.621094 197.742188 199.015625 197.570312 C 199.410156 197.394531 199.871094 197.574219 200.042969 197.96875 C 201.53125 201.324219 202.40625 204.890625 202.640625 208.554688 C 202.652344 208.769531 202.578125 208.980469 202.429688 209.136719 C 202.285156 209.292969 202.082031 209.382812 201.867188 209.382812 C 200.847656 209.390625 199.828125 209.394531 198.808594 209.394531 Z M 198.808594 209.394531 " fill-opacity="1" fill-rule="nonzero"/><path fill="#231f20" d="M 164.144531 238.765625 L 123.53125 238.765625 C 123.101562 238.765625 122.753906 238.414062 122.753906 237.984375 L 122.753906 234 C 122.753906 233.570312 123.101562 233.222656 123.53125 233.222656 L 164.144531 233.222656 C 164.574219 233.222656 164.921875 233.570312 164.921875 234 L 164.921875 237.984375 C 164.921875 238.414062 164.574219 238.765625 164.144531 238.765625 Z M 124.3125 237.207031 L 163.363281 237.207031 L 163.363281 234.78125 L 124.3125 234.78125 Z M 124.3125 237.207031 " fill-opacity="1" fill-rule="nonzero"/><path fill="#231f20" d="M 145.085938 255.339844 C 141.066406 255.339844 137.078125 255.109375 133.21875 254.847656 C 131.339844 254.71875 129.394531 254.480469 128.078125 253.09375 C 126.703125 251.648438 126.613281 249.46875 126.554688 248.023438 L 126.15625 238.246094 C 126.140625 237.816406 126.476562 237.453125 126.90625 237.4375 C 127.335938 237.414062 127.699219 237.753906 127.714844 238.183594 L 128.113281 247.960938 C 128.175781 249.5625 128.308594 251.078125 129.207031 252.019531 C 130.136719 253 131.6875 253.179688 133.324219 253.292969 C 140.601562 253.78125 148.328125 254.171875 155.792969 253.074219 C 157.015625 252.894531 158.386719 252.628906 159.1875 251.757812 C 159.96875 250.902344 160.125 249.582031 160.214844 248.300781 C 160.457031 244.996094 160.464844 241.644531 160.242188 238.34375 C 160.210938 237.914062 160.535156 237.539062 160.964844 237.511719 C 161.394531 237.484375 161.765625 237.808594 161.796875 238.238281 C 162.023438 241.613281 162.015625 245.039062 161.769531 248.414062 C 161.664062 249.898438 161.453125 251.585938 160.335938 252.808594 C 159.246094 254 157.617188 254.382812 156.019531 254.617188 C 152.398438 255.148438 148.726562 255.339844 145.085938 255.339844 Z M 145.085938 255.339844 " fill-opacity="1" fill-rule="nonzero"/><path fill="#231f20" d="M 136.585938 250.867188 C 136.09375 250.867188 135.601562 250.839844 135.101562 250.765625 C 133.542969 250.539062 132.214844 249.863281 131.371094 248.867188 C 130.515625 247.863281 130.058594 246.464844 129.972656 244.597656 C 129.949219 244.128906 129.949219 243.660156 129.949219 243.207031 C 129.945312 242.3125 129.941406 241.464844 129.792969 240.644531 C 129.71875 240.21875 130 239.8125 130.421875 239.738281 C 130.847656 239.660156 131.253906 239.941406 131.328125 240.367188 C 131.5 241.324219 131.503906 242.277344 131.507812 243.203125 C 131.507812 243.660156 131.507812 244.089844 131.527344 244.523438 C 131.601562 246.035156 131.9375 247.125 132.558594 247.859375 C 133.160156 248.566406 134.144531 249.050781 135.328125 249.222656 C 136.46875 249.390625 137.679688 249.273438 138.847656 249.164062 C 139.277344 249.121094 139.660156 249.433594 139.699219 249.863281 C 139.738281 250.292969 139.425781 250.671875 138.996094 250.714844 C 138.207031 250.789062 137.402344 250.867188 136.585938 250.867188 Z M 136.585938 250.867188 " fill-opacity="1" fill-rule="nonzero"/><path fill="#231f20" d="M 147.761719 225.261719 C 146.839844 225.261719 145.960938 224.667969 145.28125 223.582031 C 145.1875 223.429688 145.097656 223.269531 145.007812 223.113281 C 144.726562 222.628906 144.464844 222.175781 144.097656 221.917969 C 143.746094 221.671875 143.664062 221.183594 143.910156 220.832031 C 144.15625 220.480469 144.644531 220.394531 144.996094 220.644531 C 145.640625 221.097656 146.019531 221.753906 146.355469 222.332031 C 146.4375 222.476562 146.519531 222.617188 146.605469 222.757812 C 146.785156 223.042969 147.25 223.703125 147.761719 223.703125 L 147.769531 223.703125 C 148.074219 223.699219 148.425781 223.460938 148.816406 223.175781 C 149.226562 222.878906 149.609375 222.5625 149.636719 222.269531 C 149.65625 222.039062 149.457031 221.6875 149.308594 221.433594 C 148.742188 220.453125 148.160156 219.445312 147.566406 218.472656 C 147.34375 218.105469 147.457031 217.625 147.824219 217.402344 C 148.191406 217.175781 148.671875 217.292969 148.898438 217.660156 C 149.5 218.648438 150.085938 219.664062 150.652344 220.644531 C 150.894531 221.066406 151.253906 221.6875 151.1875 222.414062 C 151.089844 223.445312 150.207031 224.089844 149.734375 224.433594 C 149.261719 224.777344 148.617188 225.25 147.792969 225.261719 C 147.78125 225.261719 147.773438 225.261719 147.761719 225.261719 Z M 147.761719 225.261719 " fill-opacity="1" fill-rule="nonzero"/><path fill="#231f20" d="M 179.460938 107.78125 C 179.230469 107.78125 179.003906 107.679688 178.851562 107.488281 C 174.082031 101.523438 171.8125 93.742188 172.625 86.148438 C 172.671875 85.71875 173.054688 85.410156 173.484375 85.457031 C 173.910156 85.5 174.21875 85.886719 174.175781 86.3125 C 173.402344 93.503906 175.554688 100.867188 180.070312 106.515625 C 180.335938 106.851562 180.28125 107.34375 179.945312 107.609375 C 179.804688 107.726562 179.628906 107.78125 179.460938 107.78125 Z M 179.460938 107.78125 " fill-opacity="1" fill-rule="nonzero"/><path fill="#231f20" d="M 229.707031 121.285156 C 229.386719 121.285156 229.085938 121.085938 228.972656 120.765625 C 228.828125 120.359375 229.039062 119.914062 229.445312 119.769531 C 234.96875 117.808594 239.832031 113.777344 242.78125 108.710938 C 242.996094 108.339844 243.472656 108.214844 243.847656 108.429688 C 244.21875 108.648438 244.34375 109.125 244.128906 109.496094 C 240.996094 114.875 235.832031 119.15625 229.96875 121.238281 C 229.882812 121.269531 229.792969 121.285156 229.707031 121.285156 Z M 229.707031 121.285156 " fill-opacity="1" fill-rule="nonzero"/><path fill="#231f20" d="M 235.402344 124.46875 C 234.960938 124.46875 234.519531 124.457031 234.074219 124.433594 C 233.644531 124.414062 233.316406 124.046875 233.335938 123.617188 C 233.355469 123.1875 233.722656 122.855469 234.152344 122.878906 C 239.355469 123.132812 244.671875 121.78125 249.117188 119.066406 C 249.484375 118.84375 249.964844 118.960938 250.191406 119.328125 C 250.414062 119.695312 250.296875 120.175781 249.929688 120.398438 C 245.59375 123.042969 240.484375 124.46875 235.402344 124.46875 Z M 235.402344 124.46875 " fill-opacity="1" fill-rule="nonzero"/><path fill="#231f20" d="M 161.242188 110.703125 C 161.09375 110.703125 160.949219 110.660156 160.816406 110.574219 C 154.382812 106.332031 149.890625 99.246094 148.804688 91.617188 C 148.746094 91.191406 149.042969 90.796875 149.46875 90.734375 C 149.894531 90.675781 150.289062 90.972656 150.351562 91.398438 C 151.375 98.589844 155.609375 105.273438 161.675781 109.273438 C 162.03125 109.507812 162.132812 109.992188 161.894531 110.351562 C 161.746094 110.578125 161.496094 110.703125 161.242188 110.703125 Z M 161.242188 110.703125 " fill-opacity="1" fill-rule="nonzero"/><path fill="#231f20" d="M 152.773438 113.40625 C 152.605469 113.40625 152.433594 113.351562 152.289062 113.238281 C 148.058594 109.871094 144.535156 105.789062 141.816406 101.113281 C 141.601562 100.742188 141.726562 100.265625 142.097656 100.050781 C 142.46875 99.832031 142.945312 99.960938 143.164062 100.332031 C 145.785156 104.839844 149.183594 108.769531 153.261719 112.019531 C 153.597656 112.285156 153.652344 112.777344 153.386719 113.113281 C 153.230469 113.308594 153.003906 113.40625 152.773438 113.40625 Z M 152.773438 113.40625 " fill-opacity="1" fill-rule="nonzero"/><path fill="#231f20" d="M 142.515625 118.199219 C 142.464844 118.199219 142.414062 118.195312 142.367188 118.1875 C 137.015625 117.15625 132.15625 113.746094 129.367188 109.0625 C 129.148438 108.691406 129.269531 108.214844 129.636719 107.996094 C 130.007812 107.773438 130.484375 107.898438 130.707031 108.265625 C 133.269531 112.570312 137.738281 115.707031 142.660156 116.65625 C 143.082031 116.738281 143.359375 117.144531 143.277344 117.570312 C 143.207031 117.941406 142.878906 118.199219 142.515625 118.199219 Z M 142.515625 118.199219 " fill-opacity="1" fill-rule="nonzero"/><g fill="#231f20" fill-opacity="1"><g transform="translate(121.047148, 286.1921)"><g><path d="M 1.53125 -0.203125 C 1.894531 -0.203125 2.207031 -0.332031 2.46875 -0.59375 C 2.726562 -0.851562 2.863281 -1.164062 2.875 -1.53125 L 2.875 -13.171875 C 2.863281 -13.535156 2.726562 -13.84375 2.46875 -14.09375 C 2.207031 -14.351562 1.894531 -14.484375 1.53125 -14.484375 L 1.265625 -14.484375 L 1.265625 -14.703125 L 5.859375 -14.703125 L 5.859375 -14.484375 L 5.59375 -14.484375 C 5.082031 -14.484375 4.695312 -14.269531 4.4375 -13.84375 C 4.300781 -13.632812 4.234375 -13.410156 4.234375 -13.171875 L 4.234375 -0.65625 L 7.25 -0.65625 C 8.28125 -0.65625 9.066406 -0.882812 9.609375 -1.34375 C 10.160156 -1.800781 10.617188 -2.488281 10.984375 -3.40625 L 11.1875 -3.40625 L 9.96875 0 L 1.265625 0 L 1.265625 -0.203125 Z M 1.53125 -0.203125 "/></g></g></g><g fill="#231f20" fill-opacity="1"><g transform="translate(135.831199, 286.1921)"><g><path d="M 1.53125 -0.203125 C 1.894531 -0.203125 2.207031 -0.332031 2.46875 -0.59375 C 2.726562 -0.851562 2.863281 -1.164062 2.875 -1.53125 L 2.875 -13.296875 C 2.832031 -13.628906 2.6875 -13.910156 2.4375 -14.140625 C 2.1875 -14.367188 1.882812 -14.484375 1.53125 -14.484375 L 1.28125 -14.484375 L 1.265625 -14.703125 L 7.40625 -14.703125 C 7.84375 -14.703125 8.316406 -14.742188 8.828125 -14.828125 C 9.335938 -14.910156 9.695312 -14.992188 9.90625 -15.078125 L 9.90625 -12.4375 L 9.703125 -12.4375 L 9.703125 -12.8125 C 9.703125 -13.144531 9.585938 -13.429688 9.359375 -13.671875 C 9.128906 -13.910156 8.851562 -14.035156 8.53125 -14.046875 L 4.234375 -14.046875 L 4.234375 -7.5625 L 7.796875 -7.5625 C 8.078125 -7.570312 8.3125 -7.675781 8.5 -7.875 C 8.695312 -8.070312 8.796875 -8.316406 8.796875 -8.609375 L 8.796875 -8.90625 L 9.015625 -8.90625 L 9.015625 -5.59375 L 8.796875 -5.59375 L 8.796875 -5.90625 C 8.796875 -6.1875 8.703125 -6.421875 8.515625 -6.609375 C 8.328125 -6.804688 8.09375 -6.914062 7.8125 -6.9375 L 4.234375 -6.9375 L 4.234375 -0.65625 L 7.25 -0.65625 C 8.28125 -0.65625 9.066406 -0.882812 9.609375 -1.34375 C 10.160156 -1.800781 10.617188 -2.488281 10.984375 -3.40625 L 11.1875 -3.40625 L 9.96875 0 L 1.265625 0 L 1.265625 -0.203125 Z M 1.53125 -0.203125 "/></g></g></g><g fill="#231f20" fill-opacity="1"><g transform="translate(150.930248, 286.1921)"><g/></g></g><g fill="#231f20" fill-opacity="1"><g transform="translate(159.162272, 286.1921)"><g><path d="M 5.59375 -14.046875 L 4.234375 -14.046875 L 4.234375 -1.53125 C 4.234375 -1.164062 4.363281 -0.851562 4.625 -0.59375 C 4.882812 -0.332031 5.207031 -0.203125 5.59375 -0.203125 L 5.84375 -0.203125 L 5.859375 0 L 1.265625 0 L 1.265625 -0.203125 L 1.53125 -0.203125 C 1.894531 -0.203125 2.207031 -0.328125 2.46875 -0.578125 C 2.726562 -0.835938 2.863281 -1.148438 2.875 -1.515625 L 2.875 -13.171875 C 2.863281 -13.535156 2.726562 -13.84375 2.46875 -14.09375 C 2.207031 -14.351562 1.894531 -14.484375 1.53125 -14.484375 L 1.265625 -14.484375 L 1.265625 -14.703125 L 6.9375 -14.703125 C 8.207031 -14.703125 9.207031 -14.347656 9.9375 -13.640625 C 10.664062 -12.929688 11.03125 -12.015625 11.03125 -10.890625 C 11.03125 -9.765625 10.679688 -8.789062 9.984375 -7.96875 C 9.296875 -7.144531 8.453125 -6.734375 7.453125 -6.734375 C 7.660156 -6.640625 7.90625 -6.445312 8.1875 -6.15625 C 8.476562 -5.875 8.738281 -5.578125 8.96875 -5.265625 C 10.164062 -3.546875 10.945312 -2.484375 11.3125 -2.078125 C 11.675781 -1.679688 11.9375 -1.410156 12.09375 -1.265625 C 12.25 -1.117188 12.414062 -0.972656 12.59375 -0.828125 C 12.78125 -0.691406 12.960938 -0.582031 13.140625 -0.5 C 13.546875 -0.300781 13.984375 -0.203125 14.453125 -0.203125 L 14.453125 0 L 13.296875 0 C 12.691406 0 12.128906 -0.109375 11.609375 -0.328125 C 11.097656 -0.546875 10.710938 -0.769531 10.453125 -1 C 10.191406 -1.226562 9.960938 -1.453125 9.765625 -1.671875 C 9.578125 -1.890625 9.054688 -2.613281 8.203125 -3.84375 C 7.359375 -5.070312 6.863281 -5.773438 6.71875 -5.953125 C 6.582031 -6.128906 6.4375 -6.300781 6.28125 -6.46875 C 5.832031 -6.945312 5.382812 -7.1875 4.9375 -7.1875 L 4.9375 -7.390625 C 5.050781 -7.378906 5.195312 -7.375 5.375 -7.375 C 5.5625 -7.375 5.785156 -7.378906 6.046875 -7.390625 C 7.785156 -7.429688 8.878906 -8.160156 9.328125 -9.578125 C 9.410156 -9.859375 9.453125 -10.117188 9.453125 -10.359375 C 9.453125 -10.609375 9.453125 -10.769531 9.453125 -10.84375 C 9.421875 -11.78125 9.171875 -12.535156 8.703125 -13.109375 C 8.242188 -13.679688 7.625 -13.988281 6.84375 -14.03125 C 6.507812 -14.039062 6.09375 -14.046875 5.59375 -14.046875 Z M 5.59375 -14.046875 "/></g></g></g><g fill="#231f20" fill-opacity="1"><g transform="translate(176.361333, 286.1921)"><g><path d="M 6.265625 -16.046875 L 6.109375 -16.1875 C 7.171875 -17.332031 8.0625 -18.25 8.78125 -18.9375 C 9.15625 -18.5625 9.441406 -18.191406 9.640625 -17.828125 C 8.742188 -17.304688 7.617188 -16.710938 6.265625 -16.046875 Z M 1.53125 -0.203125 C 1.894531 -0.203125 2.207031 -0.332031 2.46875 -0.59375 C 2.726562 -0.851562 2.863281 -1.164062 2.875 -1.53125 L 2.875 -13.296875 C 2.832031 -13.628906 2.6875 -13.910156 2.4375 -14.140625 C 2.1875 -14.367188 1.882812 -14.484375 1.53125 -14.484375 L 1.28125 -14.484375 L 1.265625 -14.703125 L 7.40625 -14.703125 C 8.007812 -14.703125 8.546875 -14.75 9.015625 -14.84375 C 9.484375 -14.945312 9.78125 -15.023438 9.90625 -15.078125 L 9.90625 -12.4375 L 9.703125 -12.4375 L 9.703125 -12.8125 C 9.703125 -13.144531 9.585938 -13.429688 9.359375 -13.671875 C 9.128906 -13.910156 8.851562 -14.035156 8.53125 -14.046875 L 4.234375 -14.046875 L 4.234375 -7.5625 L 7.796875 -7.5625 C 8.078125 -7.570312 8.3125 -7.675781 8.5 -7.875 C 8.695312 -8.070312 8.796875 -8.316406 8.796875 -8.609375 L 8.796875 -8.90625 L 9.015625 -8.90625 L 9.015625 -5.59375 L 8.796875 -5.59375 L 8.796875 -5.90625 C 8.796875 -6.1875 8.703125 -6.421875 8.515625 -6.609375 C 8.328125 -6.804688 8.09375 -6.914062 7.8125 -6.9375 L 4.234375 -6.9375 L 4.234375 -0.65625 L 7.25 -0.65625 C 8.28125 -0.65625 9.066406 -0.882812 9.609375 -1.34375 C 10.160156 -1.800781 10.617188 -2.488281 10.984375 -3.40625 L 11.1875 -3.40625 L 9.96875 0 L 1.265625 0 L 1.265625 -0.203125 Z M 1.53125 -0.203125 "/></g></g></g><g fill="#231f20" fill-opacity="1"><g transform="translate(191.460381, 286.1921)"><g><path d="M 1.28125 -0.859375 C 1.238281 -1.054688 1.21875 -1.429688 1.21875 -1.984375 C 1.21875 -2.546875 1.320312 -3.144531 1.53125 -3.78125 L 1.71875 -3.78125 C 1.707031 -3.625 1.703125 -3.46875 1.703125 -3.3125 C 1.703125 -2.457031 1.957031 -1.75 2.46875 -1.1875 C 2.988281 -0.625 3.675781 -0.34375 4.53125 -0.34375 C 5.414062 -0.34375 6.140625 -0.609375 6.703125 -1.140625 C 7.273438 -1.671875 7.5625 -2.335938 7.5625 -3.140625 C 7.5625 -3.941406 7.285156 -4.597656 6.734375 -5.109375 L 2.703125 -8.84375 C 1.953125 -9.539062 1.578125 -10.382812 1.578125 -11.375 C 1.578125 -12.375 1.90625 -13.226562 2.5625 -13.9375 C 3.226562 -14.644531 4.128906 -15 5.265625 -15 C 5.796875 -15 6.398438 -14.925781 7.078125 -14.78125 L 7.890625 -14.78125 L 7.890625 -12.203125 L 7.703125 -12.203125 C 7.703125 -12.859375 7.472656 -13.378906 7.015625 -13.765625 C 6.566406 -14.160156 5.984375 -14.359375 5.265625 -14.359375 C 4.554688 -14.359375 3.957031 -14.117188 3.46875 -13.640625 C 2.988281 -13.171875 2.75 -12.578125 2.75 -11.859375 C 2.75 -11.148438 3.03125 -10.535156 3.59375 -10.015625 L 7.734375 -6.1875 C 8.429688 -5.550781 8.78125 -4.671875 8.78125 -3.546875 C 8.78125 -2.429688 8.421875 -1.507812 7.703125 -0.78125 C 6.992188 -0.0625 6.039062 0.296875 4.84375 0.296875 C 4.226562 0.296875 3.570312 0.203125 2.875 0.015625 C 2.1875 -0.171875 1.65625 -0.460938 1.28125 -0.859375 Z M 1.28125 -0.859375 "/></g></g></g><g fill="#231f20" fill-opacity="1"><g transform="translate(204.417415, 286.1921)"><g><path d="M 1.53125 -0.203125 C 1.894531 -0.203125 2.207031 -0.332031 2.46875 -0.59375 C 2.726562 -0.851562 2.863281 -1.164062 2.875 -1.53125 L 2.875 -13.296875 C 2.832031 -13.628906 2.6875 -13.910156 2.4375 -14.140625 C 2.1875 -14.367188 1.882812 -14.484375 1.53125 -14.484375 L 1.28125 -14.484375 L 1.265625 -14.703125 L 7.40625 -14.703125 C 7.84375 -14.703125 8.316406 -14.742188 8.828125 -14.828125 C 9.335938 -14.910156 9.695312 -14.992188 9.90625 -15.078125 L 9.90625 -12.4375 L 9.703125 -12.4375 L 9.703125 -12.8125 C 9.703125 -13.144531 9.585938 -13.429688 9.359375 -13.671875 C 9.128906 -13.910156 8.851562 -14.035156 8.53125 -14.046875 L 4.234375 -14.046875 L 4.234375 -7.5625 L 7.796875 -7.5625 C 8.078125 -7.570312 8.3125 -7.675781 8.5 -7.875 C 8.695312 -8.070312 8.796875 -8.316406 8.796875 -8.609375 L 8.796875 -8.90625 L 9.015625 -8.90625 L 9.015625 -5.59375 L 8.796875 -5.59375 L 8.796875 -5.90625 C 8.796875 -6.1875 8.703125 -6.421875 8.515625 -6.609375 C 8.328125 -6.804688 8.09375 -6.914062 7.8125 -6.9375 L 4.234375 -6.9375 L 4.234375 -0.65625 L 7.25 -0.65625 C 8.28125 -0.65625 9.066406 -0.882812 9.609375 -1.34375 C 10.160156 -1.800781 10.617188 -2.488281 10.984375 -3.40625 L 11.1875 -3.40625 L 9.96875 0 L 1.265625 0 L 1.265625 -0.203125 Z M 1.53125 -0.203125 "/></g></g></g><g fill="#231f20" fill-opacity="1"><g transform="translate(219.516468, 286.1921)"><g><path d="M 15.03125 -0.203125 L 15.203125 -0.203125 L 15.203125 0 L 10.46875 0 L 10.46875 -0.203125 L 10.65625 -0.203125 C 10.957031 -0.203125 11.179688 -0.296875 11.328125 -0.484375 C 11.472656 -0.679688 11.546875 -0.863281 11.546875 -1.03125 C 11.546875 -1.195312 11.515625 -1.363281 11.453125 -1.53125 L 10.109375 -5.109375 L 4.453125 -5.109375 L 3.046875 -1.515625 C 2.984375 -1.347656 2.953125 -1.179688 2.953125 -1.015625 C 2.953125 -0.859375 3.023438 -0.679688 3.171875 -0.484375 C 3.316406 -0.296875 3.539062 -0.203125 3.84375 -0.203125 L 4.03125 -0.203125 L 4.03125 0 L -0.1875 0 L -0.1875 -0.203125 L 0 -0.203125 C 0.34375 -0.203125 0.679688 -0.3125 1.015625 -0.53125 C 1.359375 -0.757812 1.632812 -1.09375 1.84375 -1.53125 L 6.59375 -12.828125 C 7.101562 -13.960938 7.359375 -14.6875 7.359375 -15 L 7.546875 -15 L 13.1875 -1.53125 C 13.382812 -1.09375 13.648438 -0.757812 13.984375 -0.53125 C 14.316406 -0.3125 14.664062 -0.203125 15.03125 -0.203125 Z M 4.703125 -5.734375 L 9.859375 -5.734375 L 7.34375 -12.46875 Z M 4.703125 -5.734375 "/></g></g></g><g fill="#231f20" fill-opacity="1"><g transform="translate(237.450526, 286.1921)"><g><path d="M 15.4375 -14.484375 L 15.09375 -14.484375 C 14.800781 -14.484375 14.546875 -14.390625 14.328125 -14.203125 C 14.109375 -14.015625 13.992188 -13.78125 13.984375 -13.5 L 13.984375 -5.1875 C 13.984375 -3.550781 13.460938 -2.226562 12.421875 -1.21875 C 11.390625 -0.207031 10.015625 0.296875 8.296875 0.296875 C 6.578125 0.296875 5.179688 -0.203125 4.109375 -1.203125 C 3.035156 -2.203125 2.5 -3.523438 2.5 -5.171875 L 2.5 -13.4375 C 2.5 -13.851562 2.316406 -14.160156 1.953125 -14.359375 C 1.785156 -14.441406 1.597656 -14.484375 1.390625 -14.484375 L 1.046875 -14.484375 L 1.046875 -14.703125 L 5.3125 -14.703125 L 5.3125 -14.484375 L 4.984375 -14.484375 C 4.671875 -14.484375 4.410156 -14.390625 4.203125 -14.203125 C 3.992188 -14.015625 3.878906 -13.773438 3.859375 -13.484375 L 3.859375 -5.453125 C 3.859375 -3.929688 4.269531 -2.703125 5.09375 -1.765625 C 5.914062 -0.828125 7.007812 -0.359375 8.375 -0.359375 C 9.75 -0.359375 10.863281 -0.800781 11.71875 -1.6875 C 12.570312 -2.582031 13 -3.75 13 -5.1875 L 13 -13.484375 C 12.988281 -13.773438 12.875 -14.015625 12.65625 -14.203125 C 12.445312 -14.390625 12.191406 -14.484375 11.890625 -14.484375 L 11.546875 -14.484375 L 11.546875 -14.703125 L 15.4375 -14.703125 Z M 15.4375 -14.484375 "/></g></g></g><g fill="#231f20" fill-opacity="1"><g transform="translate(89.101838, 307.192098)"><g><path d="M 8.375 -14.703125 C 10.613281 -14.703125 12.429688 -14.023438 13.828125 -12.671875 C 15.222656 -11.316406 15.921875 -9.539062 15.921875 -7.34375 C 15.921875 -5.144531 15.222656 -3.367188 13.828125 -2.015625 C 12.429688 -0.671875 10.613281 0 8.375 0 L 1.265625 0 L 1.265625 -0.203125 L 1.53125 -0.203125 C 1.894531 -0.203125 2.207031 -0.332031 2.46875 -0.59375 C 2.726562 -0.851562 2.863281 -1.164062 2.875 -1.53125 L 2.875 -13.296875 C 2.875 -13.628906 2.738281 -13.910156 2.46875 -14.140625 C 2.195312 -14.367188 1.882812 -14.484375 1.53125 -14.484375 L 1.28125 -14.484375 L 1.265625 -14.703125 Z M 4.234375 -14.0625 L 4.234375 -0.625 L 8.375 -0.625 C 9.550781 -0.625 10.59375 -0.90625 11.5 -1.46875 C 12.40625 -2.03125 13.101562 -2.816406 13.59375 -3.828125 C 14.09375 -4.847656 14.34375 -6.019531 14.34375 -7.34375 C 14.34375 -9.363281 13.789062 -10.988281 12.6875 -12.21875 C 11.59375 -13.445312 10.15625 -14.0625 8.375 -14.0625 Z M 4.234375 -14.0625 "/></g></g></g><g fill="#231f20" fill-opacity="1"><g transform="translate(109.030912, 307.192098)"><g><path d="M 1.53125 -0.203125 C 1.894531 -0.203125 2.207031 -0.332031 2.46875 -0.59375 C 2.726562 -0.851562 2.863281 -1.164062 2.875 -1.53125 L 2.875 -13.296875 C 2.832031 -13.628906 2.6875 -13.910156 2.4375 -14.140625 C 2.1875 -14.367188 1.882812 -14.484375 1.53125 -14.484375 L 1.28125 -14.484375 L 1.265625 -14.703125 L 7.40625 -14.703125 C 7.84375 -14.703125 8.316406 -14.742188 8.828125 -14.828125 C 9.335938 -14.910156 9.695312 -14.992188 9.90625 -15.078125 L 9.90625 -12.4375 L 9.703125 -12.4375 L 9.703125 -12.8125 C 9.703125 -13.144531 9.585938 -13.429688 9.359375 -13.671875 C 9.128906 -13.910156 8.851562 -14.035156 8.53125 -14.046875 L 4.234375 -14.046875 L 4.234375 -7.5625 L 7.796875 -7.5625 C 8.078125 -7.570312 8.3125 -7.675781 8.5 -7.875 C 8.695312 -8.070312 8.796875 -8.316406 8.796875 -8.609375 L 8.796875 -8.90625 L 9.015625 -8.90625 L 9.015625 -5.59375 L 8.796875 -5.59375 L 8.796875 -5.90625 C 8.796875 -6.1875 8.703125 -6.421875 8.515625 -6.609375 C 8.328125 -6.804688 8.09375 -6.914062 7.8125 -6.9375 L 4.234375 -6.9375 L 4.234375 -0.65625 L 7.25 -0.65625 C 8.28125 -0.65625 9.066406 -0.882812 9.609375 -1.34375 C 10.160156 -1.800781 10.617188 -2.488281 10.984375 -3.40625 L 11.1875 -3.40625 L 9.96875 0 L 1.265625 0 L 1.265625 -0.203125 Z M 1.53125 -0.203125 "/></g></g></g><g fill="#231f20" fill-opacity="1"><g transform="translate(124.129961, 307.192098)"><g><path d="M 1.28125 -0.859375 C 1.238281 -1.054688 1.21875 -1.429688 1.21875 -1.984375 C 1.21875 -2.546875 1.320312 -3.144531 1.53125 -3.78125 L 1.71875 -3.78125 C 1.707031 -3.625 1.703125 -3.46875 1.703125 -3.3125 C 1.703125 -2.457031 1.957031 -1.75 2.46875 -1.1875 C 2.988281 -0.625 3.675781 -0.34375 4.53125 -0.34375 C 5.414062 -0.34375 6.140625 -0.609375 6.703125 -1.140625 C 7.273438 -1.671875 7.5625 -2.335938 7.5625 -3.140625 C 7.5625 -3.941406 7.285156 -4.597656 6.734375 -5.109375 L 2.703125 -8.84375 C 1.953125 -9.539062 1.578125 -10.382812 1.578125 -11.375 C 1.578125 -12.375 1.90625 -13.226562 2.5625 -13.9375 C 3.226562 -14.644531 4.128906 -15 5.265625 -15 C 5.796875 -15 6.398438 -14.925781 7.078125 -14.78125 L 7.890625 -14.78125 L 7.890625 -12.203125 L 7.703125 -12.203125 C 7.703125 -12.859375 7.472656 -13.378906 7.015625 -13.765625 C 6.566406 -14.160156 5.984375 -14.359375 5.265625 -14.359375 C 4.554688 -14.359375 3.957031 -14.117188 3.46875 -13.640625 C 2.988281 -13.171875 2.75 -12.578125 2.75 -11.859375 C 2.75 -11.148438 3.03125 -10.535156 3.59375 -10.015625 L 7.734375 -6.1875 C 8.429688 -5.550781 8.78125 -4.671875 8.78125 -3.546875 C 8.78125 -2.429688 8.421875 -1.507812 7.703125 -0.78125 C 6.992188 -0.0625 6.039062 0.296875 4.84375 0.296875 C 4.226562 0.296875 3.570312 0.203125 2.875 0.015625 C 2.1875 -0.171875 1.65625 -0.460938 1.28125 -0.859375 Z M 1.28125 -0.859375 "/></g></g></g><g fill="#231f20" fill-opacity="1"><g transform="translate(137.086998, 307.192098)"><g/></g></g><g fill="#231f20" fill-opacity="1"><g transform="translate(145.319019, 307.192098)"><g><path d="M 8.796875 0.296875 C 6.554688 0.273438 4.738281 -0.429688 3.34375 -1.828125 C 1.957031 -3.222656 1.265625 -5.0625 1.265625 -7.34375 C 1.265625 -9.625 1.957031 -11.46875 3.34375 -12.875 C 4.738281 -14.289062 6.554688 -15 8.796875 -15 C 10.734375 -15 12.4375 -14.519531 13.90625 -13.5625 L 14.328125 -10.609375 L 14.140625 -10.609375 C 13.828125 -11.804688 13.203125 -12.726562 12.265625 -13.375 C 11.335938 -14.03125 10.179688 -14.359375 8.796875 -14.359375 C 7.015625 -14.359375 5.570312 -13.710938 4.46875 -12.421875 C 3.375 -11.140625 2.828125 -9.445312 2.828125 -7.34375 C 2.828125 -5.25 3.375 -3.5625 4.46875 -2.28125 C 5.570312 -1 7.015625 -0.351562 8.796875 -0.34375 C 9.703125 -0.34375 10.566406 -0.5 11.390625 -0.8125 C 12.210938 -1.132812 12.929688 -1.582031 13.546875 -2.15625 L 13.546875 -5.875 C 13.546875 -6.1875 13.453125 -6.421875 13.265625 -6.578125 C 13.078125 -6.742188 12.8125 -6.828125 12.46875 -6.828125 L 12.140625 -6.828125 L 12.140625 -7.03125 L 16.25 -7.03125 L 16.25 -6.828125 L 15.9375 -6.828125 C 15.582031 -6.828125 15.316406 -6.742188 15.140625 -6.578125 C 14.960938 -6.421875 14.878906 -6.1875 14.890625 -5.875 L 14.890625 -2.421875 C 14.523438 -1.941406 14.085938 -1.507812 13.578125 -1.125 C 13.078125 -0.75 12.40625 -0.414062 11.5625 -0.125 C 10.71875 0.15625 9.796875 0.296875 8.796875 0.296875 Z M 8.796875 0.296875 "/></g></g></g><g fill="#231f20" fill-opacity="1"><g transform="translate(165.059081, 307.192098)"><g><path d="M 3.5625 -12.875 C 4.957031 -14.289062 6.773438 -15 9.015625 -15 C 11.253906 -15 13.070312 -14.289062 14.46875 -12.875 C 15.863281 -11.46875 16.5625 -9.625 16.5625 -7.34375 C 16.5625 -5.0625 15.863281 -3.21875 14.46875 -1.8125 C 13.070312 -0.40625 11.253906 0.296875 9.015625 0.296875 C 6.773438 0.296875 4.957031 -0.40625 3.5625 -1.8125 C 2.164062 -3.21875 1.46875 -5.0625 1.46875 -7.34375 C 1.46875 -9.625 2.164062 -11.46875 3.5625 -12.875 Z M 4.71875 -2.265625 C 5.800781 -0.984375 7.234375 -0.34375 9.015625 -0.34375 C 10.804688 -0.34375 12.242188 -0.984375 13.328125 -2.265625 C 14.410156 -3.554688 14.953125 -5.25 14.953125 -7.34375 C 14.953125 -8.726562 14.707031 -9.953125 14.21875 -11.015625 C 13.726562 -12.085938 13.03125 -12.910156 12.125 -13.484375 C 11.21875 -14.066406 10.179688 -14.359375 9.015625 -14.359375 C 7.234375 -14.359375 5.800781 -13.710938 4.71875 -12.421875 C 3.632812 -11.140625 3.09375 -9.445312 3.09375 -7.34375 C 3.09375 -5.25 3.632812 -3.554688 4.71875 -2.265625 Z M 4.71875 -2.265625 "/></g></g></g><g fill="#231f20" fill-opacity="1"><g transform="translate(185.639156, 307.192098)"><g><path d="M 15.4375 -14.484375 L 15.09375 -14.484375 C 14.800781 -14.484375 14.546875 -14.390625 14.328125 -14.203125 C 14.109375 -14.015625 13.992188 -13.78125 13.984375 -13.5 L 13.984375 -5.1875 C 13.984375 -3.550781 13.460938 -2.226562 12.421875 -1.21875 C 11.390625 -0.207031 10.015625 0.296875 8.296875 0.296875 C 6.578125 0.296875 5.179688 -0.203125 4.109375 -1.203125 C 3.035156 -2.203125 2.5 -3.523438 2.5 -5.171875 L 2.5 -13.4375 C 2.5 -13.851562 2.316406 -14.160156 1.953125 -14.359375 C 1.785156 -14.441406 1.597656 -14.484375 1.390625 -14.484375 L 1.046875 -14.484375 L 1.046875 -14.703125 L 5.3125 -14.703125 L 5.3125 -14.484375 L 4.984375 -14.484375 C 4.671875 -14.484375 4.410156 -14.390625 4.203125 -14.203125 C 3.992188 -14.015625 3.878906 -13.773438 3.859375 -13.484375 L 3.859375 -5.453125 C 3.859375 -3.929688 4.269531 -2.703125 5.09375 -1.765625 C 5.914062 -0.828125 7.007812 -0.359375 8.375 -0.359375 C 9.75 -0.359375 10.863281 -0.800781 11.71875 -1.6875 C 12.570312 -2.582031 13 -3.75 13 -5.1875 L 13 -13.484375 C 12.988281 -13.773438 12.875 -14.015625 12.65625 -14.203125 C 12.445312 -14.390625 12.191406 -14.484375 11.890625 -14.484375 L 11.546875 -14.484375 L 11.546875 -14.703125 L 15.4375 -14.703125 Z M 15.4375 -14.484375 "/></g></g></g><g fill="#231f20" fill-opacity="1"><g transform="translate(205.106218, 307.192098)"><g><path d="M 5.59375 -14.046875 L 4.234375 -14.046875 L 4.234375 -1.53125 C 4.234375 -1.164062 4.363281 -0.851562 4.625 -0.59375 C 4.882812 -0.332031 5.207031 -0.203125 5.59375 -0.203125 L 5.84375 -0.203125 L 5.859375 0 L 1.265625 0 L 1.265625 -0.203125 L 1.53125 -0.203125 C 1.894531 -0.203125 2.207031 -0.328125 2.46875 -0.578125 C 2.726562 -0.835938 2.863281 -1.148438 2.875 -1.515625 L 2.875 -13.171875 C 2.863281 -13.535156 2.726562 -13.84375 2.46875 -14.09375 C 2.207031 -14.351562 1.894531 -14.484375 1.53125 -14.484375 L 1.265625 -14.484375 L 1.265625 -14.703125 L 6.9375 -14.703125 C 8.207031 -14.703125 9.207031 -14.347656 9.9375 -13.640625 C 10.664062 -12.929688 11.03125 -12.015625 11.03125 -10.890625 C 11.03125 -9.765625 10.679688 -8.789062 9.984375 -7.96875 C 9.296875 -7.144531 8.453125 -6.734375 7.453125 -6.734375 C 7.660156 -6.640625 7.90625 -6.445312 8.1875 -6.15625 C 8.476562 -5.875 8.738281 -5.578125 8.96875 -5.265625 C 10.164062 -3.546875 10.945312 -2.484375 11.3125 -2.078125 C 11.675781 -1.679688 11.9375 -1.410156 12.09375 -1.265625 C 12.25 -1.117188 12.414062 -0.972656 12.59375 -0.828125 C 12.78125 -0.691406 12.960938 -0.582031 13.140625 -0.5 C 13.546875 -0.300781 13.984375 -0.203125 14.453125 -0.203125 L 14.453125 0 L 13.296875 0 C 12.691406 0 12.128906 -0.109375 11.609375 -0.328125 C 11.097656 -0.546875 10.710938 -0.769531 10.453125 -1 C 10.191406 -1.226562 9.960938 -1.453125 9.765625 -1.671875 C 9.578125 -1.890625 9.054688 -2.613281 8.203125 -3.84375 C 7.359375 -5.070312 6.863281 -5.773438 6.71875 -5.953125 C 6.582031 -6.128906 6.4375 -6.300781 6.28125 -6.46875 C 5.832031 -6.945312 5.382812 -7.1875 4.9375 -7.1875 L 4.9375 -7.390625 C 5.050781 -7.378906 5.195312 -7.375 5.375 -7.375 C 5.5625 -7.375 5.785156 -7.378906 6.046875 -7.390625 C 7.785156 -7.429688 8.878906 -8.160156 9.328125 -9.578125 C 9.410156 -9.859375 9.453125 -10.117188 9.453125 -10.359375 C 9.453125 -10.609375 9.453125 -10.769531 9.453125 -10.84375 C 9.421875 -11.78125 9.171875 -12.535156 8.703125 -13.109375 C 8.242188 -13.679688 7.625 -13.988281 6.84375 -14.03125 C 6.507812 -14.039062 6.09375 -14.046875 5.59375 -14.046875 Z M 5.59375 -14.046875 "/></g></g></g><g fill="#231f20" fill-opacity="1"><g transform="translate(222.30528, 307.192098)"><g><path d="M 18.90625 -0.203125 L 19.234375 -0.203125 L 19.234375 0 L 14.671875 0 L 14.671875 -0.1875 L 15 -0.1875 C 15.226562 -0.1875 15.425781 -0.28125 15.59375 -0.46875 C 15.769531 -0.65625 15.84375 -0.863281 15.8125 -1.09375 L 14.875 -11.65625 L 10.453125 -1.84375 C 10.066406 -0.988281 9.832031 -0.273438 9.75 0.296875 L 9.53125 0.296875 L 4.15625 -11.359375 L 3.25 -1.09375 C 3.226562 -0.863281 3.300781 -0.65625 3.46875 -0.46875 C 3.632812 -0.28125 3.828125 -0.1875 4.046875 -0.1875 L 4.390625 -0.1875 L 4.390625 0 L 0.3125 0 L 0.3125 -0.203125 L 0.65625 -0.203125 C 1.039062 -0.203125 1.375 -0.320312 1.65625 -0.5625 C 1.945312 -0.800781 2.125 -1.125 2.1875 -1.53125 L 3.765625 -15 L 3.96875 -15 L 9.828125 -2.328125 L 15.5625 -15 L 15.75 -15 L 17.359375 -1.53125 C 17.429688 -0.96875 17.710938 -0.578125 18.203125 -0.359375 C 18.410156 -0.253906 18.644531 -0.203125 18.90625 -0.203125 Z M 18.90625 -0.203125 "/></g></g></g><g fill="#231f20" fill-opacity="1"><g transform="translate(244.838363, 307.192098)"><g><path d="M 1.53125 -0.203125 C 1.894531 -0.203125 2.207031 -0.332031 2.46875 -0.59375 C 2.726562 -0.851562 2.863281 -1.164062 2.875 -1.53125 L 2.875 -13.296875 C 2.832031 -13.628906 2.6875 -13.910156 2.4375 -14.140625 C 2.1875 -14.367188 1.882812 -14.484375 1.53125 -14.484375 L 1.28125 -14.484375 L 1.265625 -14.703125 L 7.40625 -14.703125 C 7.84375 -14.703125 8.316406 -14.742188 8.828125 -14.828125 C 9.335938 -14.910156 9.695312 -14.992188 9.90625 -15.078125 L 9.90625 -12.4375 L 9.703125 -12.4375 L 9.703125 -12.8125 C 9.703125 -13.144531 9.585938 -13.429688 9.359375 -13.671875 C 9.128906 -13.910156 8.851562 -14.035156 8.53125 -14.046875 L 4.234375 -14.046875 L 4.234375 -7.5625 L 7.796875 -7.5625 C 8.078125 -7.570312 8.3125 -7.675781 8.5 -7.875 C 8.695312 -8.070312 8.796875 -8.316406 8.796875 -8.609375 L 8.796875 -8.90625 L 9.015625 -8.90625 L 9.015625 -5.59375 L 8.796875 -5.59375 L 8.796875 -5.90625 C 8.796875 -6.1875 8.703125 -6.421875 8.515625 -6.609375 C 8.328125 -6.804688 8.09375 -6.914062 7.8125 -6.9375 L 4.234375 -6.9375 L 4.234375 -0.65625 L 7.25 -0.65625 C 8.28125 -0.65625 9.066406 -0.882812 9.609375 -1.34375 C 10.160156 -1.800781 10.617188 -2.488281 10.984375 -3.40625 L 11.1875 -3.40625 L 9.96875 0 L 1.265625 0 L 1.265625 -0.203125 Z M 1.53125 -0.203125 "/></g></g></g><g fill="#231f20" fill-opacity="1"><g transform="translate(259.937411, 307.192098)"><g><path d="M 12.375 -12.828125 C 12.375 -13.160156 12.253906 -13.445312 12.015625 -13.6875 C 11.773438 -13.9375 11.492188 -14.070312 11.171875 -14.09375 L 7.1875 -14.09375 L 7.1875 -1.515625 C 7.195312 -1.148438 7.332031 -0.835938 7.59375 -0.578125 C 7.851562 -0.328125 8.164062 -0.203125 8.53125 -0.203125 L 8.796875 -0.203125 L 8.796875 0 L 4.203125 0 L 4.203125 -0.203125 L 4.46875 -0.203125 C 4.832031 -0.203125 5.144531 -0.328125 5.40625 -0.578125 C 5.664062 -0.835938 5.800781 -1.140625 5.8125 -1.484375 L 5.8125 -14.09375 L 1.828125 -14.09375 C 1.492188 -14.070312 1.207031 -13.9375 0.96875 -13.6875 C 0.738281 -13.445312 0.625 -13.160156 0.625 -12.828125 L 0.625 -12.46875 L 0.421875 -12.453125 L 0.421875 -15.09375 C 0.628906 -15.007812 0.988281 -14.925781 1.5 -14.84375 C 2.019531 -14.757812 2.5 -14.71875 2.9375 -14.71875 L 10.03125 -14.71875 C 10.71875 -14.71875 11.289062 -14.769531 11.75 -14.875 C 12.207031 -14.976562 12.484375 -15.050781 12.578125 -15.09375 L 12.578125 -12.453125 L 12.375 -12.46875 Z M 12.375 -12.828125 "/></g></g></g><g fill="#231f20" fill-opacity="1"><g transform="translate(275.897466, 307.192098)"><g><path d="M 1.28125 -0.859375 C 1.238281 -1.054688 1.21875 -1.429688 1.21875 -1.984375 C 1.21875 -2.546875 1.320312 -3.144531 1.53125 -3.78125 L 1.71875 -3.78125 C 1.707031 -3.625 1.703125 -3.46875 1.703125 -3.3125 C 1.703125 -2.457031 1.957031 -1.75 2.46875 -1.1875 C 2.988281 -0.625 3.675781 -0.34375 4.53125 -0.34375 C 5.414062 -0.34375 6.140625 -0.609375 6.703125 -1.140625 C 7.273438 -1.671875 7.5625 -2.335938 7.5625 -3.140625 C 7.5625 -3.941406 7.285156 -4.597656 6.734375 -5.109375 L 2.703125 -8.84375 C 1.953125 -9.539062 1.578125 -10.382812 1.578125 -11.375 C 1.578125 -12.375 1.90625 -13.226562 2.5625 -13.9375 C 3.226562 -14.644531 4.128906 -15 5.265625 -15 C 5.796875 -15 6.398438 -14.925781 7.078125 -14.78125 L 7.890625 -14.78125 L 7.890625 -12.203125 L 7.703125 -12.203125 C 7.703125 -12.859375 7.472656 -13.378906 7.015625 -13.765625 C 6.566406 -14.160156 5.984375 -14.359375 5.265625 -14.359375 C 4.554688 -14.359375 3.957031 -14.117188 3.46875 -13.640625 C 2.988281 -13.171875 2.75 -12.578125 2.75 -11.859375 C 2.75 -11.148438 3.03125 -10.535156 3.59375 -10.015625 L 7.734375 -6.1875 C 8.429688 -5.550781 8.78125 -4.671875 8.78125 -3.546875 C 8.78125 -2.429688 8.421875 -1.507812 7.703125 -0.78125 C 6.992188 -0.0625 6.039062 0.296875 4.84375 0.296875 C 4.226562 0.296875 3.570312 0.203125 2.875 0.015625 C 2.1875 -0.171875 1.65625 -0.460938 1.28125 -0.859375 Z M 1.28125 -0.859375 "/></g></g></g></svg>